<svg width="24" height="24" viewBox="0 0 24 24" fill="none" xmlns="http://www.w3.org/2000/svg">
<path opacity="0.88" d="M16.6107 10.6863L10.9367 10.6865L9.82704 3.76888C9.80926 3.65857 9.81563 3.54571 9.84572 3.43812C9.87581 3.33053 9.9289 3.23076 10.0013 3.14572C10.0738 3.06067 10.1638 2.99236 10.2652 2.94552C10.3666 2.89868 10.477 2.87442 10.5888 2.87441C10.7115 2.87339 10.8328 2.90194 10.9422 2.95766C11.0516 3.01339 11.1461 3.09464 11.2175 3.19455L16.6107 10.6863Z" fill="#1882FF"/>
<path opacity="0.8" d="M7.19119 10.935L7.20303 10.9695C6.45451 11.16 5.71651 11.3896 4.99205 11.6573L4.98072 11.6223L4.49241 8.93571C4.46489 8.76728 4.49745 8.59457 4.58439 8.44776C4.67133 8.30096 4.80712 8.18941 4.96802 8.13262C5.12891 8.07584 5.30468 8.07742 5.46458 8.1371C5.62448 8.19679 5.75834 8.31077 5.84275 8.45912L7.19119 10.935Z" fill="#1882FF"/>
<path opacity="0.8" d="M5.84801 16.158C5.78515 16.2723 5.69297 16.3677 5.58095 16.4345C5.46893 16.5013 5.34112 16.5371 5.21068 16.538C5.01984 16.5382 4.83664 16.4629 4.70109 16.3285C4.56553 16.1941 4.48864 16.0116 4.48719 15.8207C4.48736 15.775 4.49165 15.7294 4.50002 15.6844L4.98301 12.9918L4.99432 12.9569C5.69919 13.2187 6.41719 13.4436 7.14541 13.6308L7.19687 13.6822L5.84801 16.158Z" fill="#1882FF"/>
<path opacity="0.88" d="M11.2207 21.4287C11.1197 21.5704 10.9736 21.6737 10.8064 21.7217C10.6391 21.7698 10.4605 21.7597 10.2996 21.6933C10.1387 21.6269 10.005 21.508 9.9203 21.3559C9.83558 21.2038 9.80484 21.0276 9.83307 20.8558L10.9391 13.9382L16.6131 13.9379L11.2207 21.4287Z" fill="#1882FF"/>
<path d="M22.9271 12.3126C22.9269 11.5533 21.8896 10.9162 20.4877 10.7384C19.9331 10.6673 20.5957 10.6849 9.13516 10.688C8.48214 10.7078 7.83369 10.8036 7.20292 10.9736C5.88803 11.3208 4.6018 11.7685 3.3556 12.3129C4.58062 12.8524 5.8452 13.2971 7.13819 13.6431C7.78836 13.8207 8.45715 13.9212 9.13075 13.9424C20.5409 13.9393 19.9148 13.9623 20.4853 13.8889C21.8918 13.7071 22.9314 13.072 22.9271 12.3126Z" fill="#1882FF"/>
<path opacity="0.72" d="M14.5049 16.8704L15.4105 16.8704C15.583 16.8695 15.7482 16.8006 15.8702 16.6786C15.9921 16.5566 16.0611 16.3915 16.062 16.219C16.0615 16.0518 15.9964 15.8913 15.8802 15.7711C15.7641 15.6509 15.6059 15.5804 15.4388 15.5742L14.5049 16.8704Z" fill="#1882FF"/>
<path opacity="0.72" d="M15.4371 9.05642C15.6048 9.04867 15.763 8.97688 15.8793 8.85585C15.9955 8.73483 16.0608 8.5738 16.0618 8.406C16.0613 8.32077 16.0439 8.23648 16.0108 8.15796C15.9776 8.07943 15.9293 8.00822 15.8686 7.94838C15.8079 7.88854 15.7361 7.84126 15.6571 7.80924C15.5781 7.77721 15.4935 7.76108 15.4083 7.76175L14.5047 7.76175L15.4371 9.05642Z" fill="#1882FF"/>
</svg>
