<svg width="51" height="40" viewBox="0 0 51 40" fill="none" xmlns="http://www.w3.org/2000/svg">
<rect width="51" height="40" rx="2.13" fill="white"/>
<rect x="0.5" y="0.5" width="50" height="39" rx="1.63" stroke="#9DADBC" stroke-opacity="0.36"/>
<path d="M42.4689 20.4625L33.5846 19.0703L34.7624 24.3644L42.4689 20.4625Z" fill="#D12053"/>
<path d="M42.4689 20.4625L35.7743 11.161L33.5863 19.072L42.4689 20.4625Z" fill="#E2136E"/>
<path d="M33.3785 18.9647L26.3639 10L35.5498 11.0973L33.3785 18.9647Z" fill="#D12053"/>
<path d="M30.1837 15.2187L26.2885 11.548H27.3138L30.1837 15.2187Z" fill="#9E1638"/>
<path d="M44.3637 15.9408L42.7152 20.4123L40.043 16.7165L44.3637 15.9408Z" fill="#D12053"/>
<path d="M35.7994 24.0963L42.2679 21.4979L42.5393 20.6719L35.7994 24.0963Z" fill="#E2136E"/>
<path d="M30.626 29L33.397 19.2797L34.8026 25.6041L30.626 29Z" fill="#9E1638"/>
<path d="M44.6217 15.9759L43.9416 17.8221L46.3943 17.7819L44.6217 15.9759ZM5 16.7164C5.11895 16.7264 5.23957 16.7482 5.3669 16.7482C5.49422 16.7482 5.5981 16.7264 5.7338 16.7164V20.6484C6.1208 19.99 6.60832 19.5561 7.32537 19.5561C8.62208 19.5561 9.17829 20.8394 9.17829 22.0188C9.17829 23.4311 8.42439 24.7831 7.10255 24.7831C6.8379 24.7889 6.5767 24.7222 6.34725 24.5902C6.11779 24.4582 5.92883 24.266 5.80081 24.0343C5.57967 24.2286 5.38365 24.4615 5.17424 24.6726H5.0067L5 16.7164ZM5.71704 22.4997C5.71704 23.6456 6.20289 24.4447 7.00203 24.4447C8.03906 24.4447 8.37246 23.0508 8.37246 22.0624C8.37246 20.9148 7.99383 20.0118 7.09585 20.0017C6.04709 19.9934 5.71704 21.2348 5.71704 22.5013V22.4997Z" fill="#E2136E"/>
<path d="M12.5608 19.2596L11.7801 20.2648C12.5139 21.337 13.2745 22.3874 14.0117 23.4731L14.7555 24.6458V24.7044C14.5729 24.6927 14.407 24.6693 14.2529 24.6693C14.0988 24.6693 13.9044 24.6927 13.7402 24.7044C13.5375 24.3292 13.3365 23.9824 13.107 23.6423L11.0966 20.6685C11.0513 20.6216 10.9424 20.5848 10.9424 20.6334V24.7044C10.795 24.6927 10.666 24.6693 10.5387 24.6693C10.4113 24.6693 10.2639 24.6927 10.1349 24.7044V16.7164C10.2639 16.7265 10.403 16.7516 10.5387 16.7516C10.6744 16.7516 10.795 16.7265 10.9424 16.7164V20.3218C10.9424 20.3921 11.0798 20.3452 11.1703 20.2514C11.3448 20.0705 11.5081 19.8791 11.6595 19.6784L13.9195 16.7131C14.0385 16.7231 14.1574 16.7483 14.2864 16.7483C14.4154 16.7483 14.5143 16.7231 14.6449 16.7131L12.5608 19.2596ZM18.6406 23.8048C18.6406 24.2203 18.6138 24.4314 19.1549 24.294V24.5269C19.0665 24.5711 18.9739 24.6065 18.8785 24.6324C18.401 24.7279 18.0057 24.6424 17.9319 24.0175L17.8498 24.1097C17.6902 24.3188 17.4843 24.4882 17.2483 24.6045C17.0123 24.7207 16.7526 24.7807 16.4895 24.7798C15.8394 24.7798 15.2698 24.2672 15.2698 23.4814C15.2698 22.2702 16.1075 22.111 16.9669 21.9519C17.694 21.8145 17.942 21.7508 17.942 21.2398C17.942 20.4524 17.5567 19.9967 16.8681 19.9967C16.6329 19.9921 16.4021 20.0599 16.2067 20.1908C16.0113 20.3218 15.8609 20.5096 15.7758 20.7289H15.6753V20.1391C16.0887 19.7795 16.6136 19.5735 17.1613 19.5561C18.1246 19.5561 18.649 20.1391 18.649 21.3404L18.6406 23.8048ZM17.9068 22.0507L17.5835 22.1244C16.9586 22.2618 16.0221 22.3673 16.0221 23.3374C16.0221 24.0075 16.3571 24.3426 16.92 24.3426C17.2112 24.3067 17.4775 24.1604 17.6639 23.9338C17.7309 23.8567 17.9152 23.6758 17.9152 23.5987L17.9068 22.0507ZM20.2774 23.6641C20.4952 24.0812 20.9006 24.4548 21.3329 24.4548C21.5795 24.4422 21.8116 24.3341 21.9798 24.1533C22.1481 23.9726 22.2393 23.7334 22.2342 23.4865C22.2342 22.0524 20.0646 22.9839 20.0646 21.1276C20.0646 20.109 20.7348 19.5578 21.5607 19.5578C21.9259 19.5498 22.2861 19.6449 22.5994 19.8326C22.509 20.0783 22.4362 20.3303 22.3816 20.5865H22.2979C22.1772 20.2363 21.8573 19.8845 21.5172 19.8845C21.0581 19.8845 20.6795 20.1944 20.6795 20.7691C20.6795 22.1278 22.8491 21.404 22.8491 23.1045C22.8491 24.242 21.9678 24.7798 21.157 24.7798C20.7509 24.7795 20.3533 24.6633 20.011 24.4448C20.0933 24.1899 20.1576 23.9296 20.2037 23.6657L20.2774 23.6641ZM24.0855 16.7164C24.2078 16.7265 24.3267 16.7483 24.454 16.7483C24.5814 16.7483 24.6852 16.7265 24.8226 16.7164V20.5848C25.1443 19.9364 25.6485 19.5561 26.3019 19.5561C27.3674 19.5561 27.7813 20.2866 27.7813 21.6268V24.7044C27.6422 24.6927 27.535 24.6726 27.4127 24.6726C27.2904 24.6726 27.1647 24.6944 27.0441 24.7044V21.8698C27.0441 20.697 26.8079 20.1056 26.0255 20.1056C25.1979 20.1056 24.8226 20.7021 24.8226 21.8061V24.7044C24.6852 24.6927 24.5763 24.6726 24.454 24.6726C24.3317 24.6726 24.2094 24.6944 24.0855 24.7044V16.7164Z" fill="#231F20"/>
</svg>
