<svg width="51" height="40" viewBox="0 0 51 40" fill="none" xmlns="http://www.w3.org/2000/svg">
<path d="M48.87 0H2.13C0.953634 0 0 0.953634 0 2.13V37.87C0 39.0464 0.953634 40 2.13 40H48.87C50.0464 40 51 39.0464 51 37.87V2.13C51 0.953634 50.0464 0 48.87 0Z" fill="white"/>
<path d="M48.87 0.5H2.13C1.22978 0.5 0.5 1.22978 0.5 2.13V37.87C0.5 38.7702 1.22978 39.5 2.13 39.5H48.87C49.7702 39.5 50.5 38.7702 50.5 37.87V2.13C50.5 1.22978 49.7702 0.5 48.87 0.5Z" stroke="#9DADBC" stroke-opacity="0.36" stroke-miterlimit="10"/>
<path d="M35.1877 26.0498C35.2047 26.0504 35.2222 26.0515 35.2392 26.0521V26.0504C35.2217 26.0504 35.2047 26.0504 35.1877 26.0498Z" fill="#807AB7"/>
<path d="M35.2842 26.0527C35.2889 26.0527 35.2936 26.0521 35.2989 26.0521C35.2942 26.0521 35.2889 26.0521 35.2842 26.0521V26.0527Z" fill="#807AB7"/>
<path d="M35.2562 21.7672V21.7695C35.2579 21.7695 35.2597 21.7695 35.2614 21.7695" fill="#4A4A49"/>
<path d="M18.1197 18.4622C19.0723 18.4622 19.8471 17.6948 19.8471 16.7512C19.8471 15.8077 19.0723 15.0403 18.1197 15.0403C17.1671 15.0403 16.3923 15.8077 16.3923 16.7512C16.3923 17.6948 17.1671 18.4622 18.1197 18.4622Z" fill="#004899"/>
<path d="M7.71274 18.4622C8.66532 18.4622 9.44013 17.6948 9.44013 16.7512C9.44013 15.8077 8.66532 15.0403 7.71274 15.0403C6.76016 15.0403 5.98535 15.8077 5.98535 16.7512C5.98535 17.6948 6.76016 18.4622 7.71274 18.4622Z" fill="#FFD600"/>
<path d="M19.1021 19.4364H17.4227C17.0122 19.4364 16.6783 19.7672 16.6783 20.1738V20.8572C16.6783 22.7663 15.4117 23.5476 14.5597 23.8569C14.5427 23.8633 14.5258 23.8691 14.5094 23.8749C14.4924 23.8813 14.4755 23.8865 14.4579 23.8928C13.9264 24.0857 13.4059 24.1494 12.944 24.1477V24.1494C13.7217 24.157 14.3521 24.7848 14.3521 25.5569C14.3521 26.3249 13.7276 26.9511 12.9551 26.9638C14.3766 26.9742 15.2608 26.7159 15.3631 26.684C16.4625 26.4234 17.377 25.9658 18.084 25.3078C19.2536 24.2184 19.8471 22.6151 19.8471 20.5433V20.1732C19.8465 19.7672 19.5126 19.4364 19.1021 19.4364Z" fill="#004899"/>
<path d="M12.9306 24.1489C12.9294 24.1489 12.9282 24.1489 12.9271 24.1489V24.1471C11.971 24.1413 11.2722 23.8569 11.2722 23.8569C10.4202 23.5471 9.15301 22.7663 9.15301 20.8566V20.1732C9.15301 19.7666 8.81911 19.4359 8.4086 19.4359H6.72975C6.31925 19.4359 5.98535 19.7666 5.98535 20.1732V20.5433C5.98535 22.6151 6.5783 24.2184 7.74841 25.3078C8.45246 25.9629 9.36177 26.4193 10.4547 26.6806H10.4313C10.4769 26.6904 10.5213 26.6991 10.5664 26.7078C10.8599 26.7732 11.1669 26.8248 11.4862 26.8624C11.9944 26.9285 12.4604 26.9569 12.8826 26.9626C12.9066 26.9632 12.9317 26.9638 12.9557 26.9638C13.7282 26.9505 14.3533 26.3249 14.3533 25.5569C14.3521 24.7808 13.7147 24.1489 12.9306 24.1489Z" fill="#FFD600"/>
<path d="M30.0927 22.9232C30.0459 23.119 30.0553 23.3148 30.2126 23.5453C30.4933 23.9565 31.0646 24.1813 31.5371 23.982C32.1014 23.7446 33.5527 22.9186 34.5983 21.8934V24.4854C34.5983 24.6707 34.7503 24.8213 34.9375 24.8213H35.7801C35.9672 24.8213 36.1193 24.6707 36.1193 24.4854V19.9479C36.1193 19.8413 36.2064 19.7544 36.3146 19.7544H37.021C37.1022 19.7544 37.1683 19.8199 37.1683 19.9004V24.4854C37.1683 24.6707 37.3204 24.8213 37.5075 24.8213H38.3501C38.5378 24.8213 38.6893 24.6707 38.6893 24.4854V18.6354C38.6893 18.45 38.5373 18.2994 38.3501 18.2994H34.9375C34.7503 18.2994 34.5983 18.45 34.5983 18.6354C34.5983 18.7976 34.5948 19.32 34.5995 19.4816C33.8492 18.8781 33.5118 18.5838 32.0382 18.4292C31.5967 18.3828 31.1482 18.417 30.7243 18.5468C29.7085 18.8572 29.7126 19.4202 29.7091 19.5262C29.6968 19.887 29.8132 20.2427 30.0395 20.5253C30.2734 20.8178 30.3985 21.1798 30.412 21.5511C30.4219 21.8193 30.3751 22.0874 30.2962 22.3429C30.2301 22.5543 30.1366 22.7385 30.0927 22.9232ZM31.4055 20.1349C31.3236 20.0643 31.3441 19.9311 31.4441 19.8882C31.9879 19.6571 33.9662 20.1963 33.8861 20.5885C33.8042 20.9893 31.4225 22.7506 31.6166 22.1477C31.6476 22.0521 31.7523 21.7127 31.7768 21.6044C31.8172 21.4277 31.8411 21.2493 31.833 21.0675C31.8148 20.6672 31.6464 20.4332 31.4055 20.1349Z" fill="#4A4A49"/>
<path d="M44.7615 18.2994H39.5454C39.3548 18.2994 39.2016 18.446 39.2062 18.6238L39.1823 19.5007C39.1823 19.5053 39.1828 19.5106 39.1828 19.5164C39.1969 19.7515 39.1477 20.3 39.339 20.6504C39.4395 20.8352 39.6483 20.9481 39.96 20.9939C40.2717 21.0402 40.5863 21.0663 40.6857 21.1694C41.0699 21.5702 40.3769 21.7469 39.9313 21.9015C39.3261 22.1118 39.198 22.3006 39.198 22.7727C39.198 23.2852 39.1179 23.5627 39.3243 24.0446C39.5466 24.5636 40.0489 24.4825 40.5494 24.4483C43.5808 24.2415 43.6107 25.1335 44.5521 24.7014C44.955 24.5161 45.093 24.205 45.1053 23.7538C45.1106 23.5696 45.1018 23.382 45.1018 23.1972V21.4474V18.6163C45.1012 18.4413 44.9492 18.2994 44.7615 18.2994ZM43.2195 23.1196C42.3762 22.958 41.3073 23.0113 41.2073 22.9933C40.9605 22.9499 40.9289 22.7147 41.2108 22.5502C41.3716 22.4558 42.4277 22.1355 42.4446 21.3113V21.3009C42.4528 20.8949 42.1944 20.5282 41.8014 20.3863L41.3114 20.2097C41.0658 20.1627 40.9605 19.9519 40.9605 19.832C40.9605 19.7828 40.9903 19.7619 41.0225 19.7532C41.0605 19.7434 41.609 19.7509 41.609 19.7509H43.1844C43.3715 19.7509 43.5235 19.8928 43.5235 20.0678C43.5452 20.5027 43.561 20.7819 43.5721 21.2163C43.5808 21.5534 43.5873 21.8905 43.5849 22.227C43.5843 22.3145 43.6264 22.6881 43.6276 22.9429C43.6288 23.2528 43.3218 23.1393 43.2195 23.1196Z" fill="#4A4A49"/>
<path d="M29.0536 19.7486C29.2407 19.7486 29.3927 19.594 29.3927 19.4034V18.6522C29.3927 18.4616 29.2407 18.307 29.0536 18.307L28.2291 18.2919C28.5729 17.7868 28.5489 16.4842 27.1911 16.2537C26.3707 16.1141 25.0912 16.7918 24.3006 16.194C23.9936 15.9618 23.6755 15.927 23.5428 16.2728C23.4802 16.435 23.4323 16.6093 23.4147 16.7535C23.3978 16.8862 23.3802 17.2441 23.7586 17.4943C24.1825 17.7747 25.0632 17.8795 26.4344 17.5974C27.1233 17.4561 27.3537 18.307 26.6251 18.307H24.8942H23.5714C23.3837 18.307 23.2323 18.4616 23.2323 18.6528V19.4034C23.2323 19.594 23.3843 19.7486 23.5714 19.7486L25.5549 19.748C25.5549 19.748 25.5555 20.6487 25.559 21.5523C25.5614 22.2085 25.9204 22.4755 26.9765 22.3487L27.8367 22.2039C27.9297 22.1853 28.0133 22.267 27.9975 22.362C27.884 23.057 27.0841 23.4092 26.1684 23.3519C25.5473 23.3131 25.1351 23.1208 24.9626 22.8126C24.5228 22.0289 24.6269 20.5468 24.6269 20.5468C24.6269 20.3562 24.4749 20.2016 24.2878 20.2016H23.6065C23.5229 20.2016 23.4463 20.2323 23.3872 20.2832C23.3135 20.3464 23.2136 20.669 23.1872 20.9568C23.1492 21.3808 23.1334 22.0342 23.2323 22.4807C23.5872 24.0846 24.4661 24.8694 26.3789 24.8694C27.3771 24.8694 28.087 24.5074 28.5653 24.1077C29.0968 23.664 29.3939 23.0854 29.3939 22.3857V21.3165C29.3939 21.1596 29.3536 20.8225 29.0191 20.7072C28.8887 20.6626 28.7466 20.6713 28.6168 20.7182L27.6501 20.9458C27.6431 20.9482 27.6349 20.951 27.6279 20.9522C27.3379 21.0177 27.1929 20.9922 27.0765 20.8868C26.9899 20.8086 26.9473 20.6933 26.9478 20.5775L26.9514 19.7504L29.0536 19.7486Z" fill="#4A4A49"/>
<path d="M41.8546 26.943C42.5131 27.0258 43.0698 26.475 42.9861 25.8228C42.9288 25.3779 42.5669 25.0188 42.1178 24.9621C41.4587 24.8792 40.9026 25.4301 40.9863 26.0828C41.0436 26.5277 41.4061 26.8868 41.8546 26.943Z" fill="#4A4A49"/>
</svg>
