<svg width="51" height="40" viewBox="0 0 51 40" fill="none" xmlns="http://www.w3.org/2000/svg">
<rect width="51" height="40" rx="2.13" fill="white"/>
<rect x="0.5" y="0.5" width="50" height="39" rx="1.63" stroke="#9DADBC" stroke-opacity="0.36"/>
<path d="M29.5 12.925H21.625V27.075H29.5V12.925Z" fill="#FF5F00"/>
<path d="M22.125 20C22.125 17.125 23.475 14.575 25.55 12.925C24.025 11.725 22.1 11 20 11C15.025 11 11 15.025 11 20C11 24.975 15.025 29 20 29C22.1 29 24.025 28.275 25.55 27.075C23.475 25.45 22.125 22.875 22.125 20Z" fill="#EB001B"/>
<path d="M40.125 20C40.125 24.975 36.1 29 31.125 29C29.025 29 27.1 28.275 25.575 27.075C27.675 25.425 29 22.875 29 20C29 17.125 27.65 14.575 25.575 12.925C27.1 11.725 29.025 11 31.125 11C36.1 11 40.125 15.05 40.125 20Z" fill="#F79E1B"/>
</svg>
