<svg width="51" height="40" viewBox="0 0 51 40" fill="none" xmlns="http://www.w3.org/2000/svg">
<rect width="51" height="40" rx="2.13" fill="white"/>
<rect x="0.5" y="0.5" width="50" height="39" rx="1.63" stroke="#9DADBC" stroke-opacity="0.36"/>
<g clip-path="url(#clip0)">
<path d="M39.9821 14.9622C39.9821 19.4018 33.7182 23 25.9906 23C18.2648 23 12 19.4018 12 14.9622C12 10.5235 18.2648 6.92352 25.9906 6.92352C33.7182 6.92352 39.9821 10.5235 39.9821 14.9622Z" fill="url(#paint0_linear)"/>
<path d="M39.9821 14.1478C39.9821 18.6378 33.7314 22.2779 26.0207 22.2779C18.31 22.2779 12.0592 18.6378 12.0592 14.1478C12.0592 9.65783 18.31 6.0177 26.0207 6.0177C33.7314 6.0177 39.9821 9.65783 39.9821 14.1478Z" fill="url(#paint1_linear)" stroke="#C5C5C6" stroke-width="0.3854" stroke-miterlimit="10"/>
<path fill-rule="evenodd" clip-rule="evenodd" d="M30.4288 22.0214C30.0415 22.0839 29.6833 22.1567 29.3233 22.1949C28.5232 22.2789 27.7204 22.3479 26.9194 22.4179C26.7389 22.4337 26.5594 22.4337 26.3789 22.4337C26.3403 22.4337 26.2924 22.4123 26.2651 22.3862C24.5381 20.7779 22.8977 19.0968 21.5561 17.1741C21.1312 16.5659 20.7674 15.9268 20.4863 15.243C20.0266 14.1236 20.2005 13.0881 20.8971 12.1095C21.4349 11.352 22.1305 10.7456 22.8873 10.1971C24.0342 9.36492 25.2855 8.69883 26.5763 8.09899C28.0165 7.43011 29.4991 6.85452 31.0183 6.36475C31.1066 6.33583 31.2166 6.33023 31.3078 6.34889C31.635 6.41979 31.9584 6.50562 32.2836 6.6101C32.0449 6.69593 31.8042 6.77989 31.5663 6.86758C29.8507 7.49914 28.1951 8.24545 26.6571 9.21285C25.8308 9.73154 25.0561 10.3127 24.4093 11.0329C23.9205 11.5759 23.5304 12.171 23.3677 12.881C23.2333 13.4659 23.2859 14.0321 23.5341 14.5854C23.8697 15.3335 24.3388 16.0015 24.854 16.6424C25.8176 17.8421 26.9091 18.9317 28.0588 19.9662C28.8109 20.6426 29.5893 21.2928 30.3555 21.9542C30.3724 21.9701 30.3875 21.985 30.4288 22.0214Z" fill="#E8242A"/>
<path fill-rule="evenodd" clip-rule="evenodd" d="M24.9405 22.4309C24.6387 22.4169 24.3717 22.4141 24.1057 22.3917C23.5595 22.347 23.0105 22.3125 22.468 22.235C21.7526 22.1333 21.0419 21.9962 20.3302 21.8721C20.2992 21.8665 20.2663 21.8423 20.2447 21.818C18.9897 20.3674 17.8296 18.8552 16.9835 17.1452C16.662 16.494 16.4147 15.8196 16.2991 15.1031C16.1712 14.3111 16.3536 13.5862 16.772 12.9052C17.2166 12.1794 17.8258 11.5889 18.4952 11.0534C19.5142 10.24 20.6395 9.57948 21.809 8.98523C24.1283 7.80512 26.5659 6.89369 29.0544 6.09514C29.4126 5.9804 29.736 6.05036 30.0763 6.1054C30.2295 6.13153 30.3818 6.16138 30.567 6.19589C30.2991 6.28918 30.0594 6.37034 29.8225 6.45617C27.8445 7.16703 25.9201 7.9861 24.0954 9.00668C23.0415 9.59533 22.0347 10.2474 21.1472 11.0534C20.6809 11.477 20.2626 11.9378 19.9326 12.4696C19.3751 13.367 19.2764 14.299 19.6515 15.2841C19.9984 16.1918 20.4948 17.022 21.0504 17.8234C21.9952 19.1845 23.0782 20.442 24.2129 21.6622C24.4432 21.9104 24.6792 22.1548 24.9405 22.4309Z" fill="#214596"/>
<path fill-rule="evenodd" clip-rule="evenodd" d="M35.0447 20.5838C34.695 20.7265 34.3697 20.8665 34.0407 20.9933C33.2689 21.2909 32.4764 21.5316 31.6716 21.734C31.5992 21.7518 31.5457 21.7434 31.4855 21.6986C29.8168 20.4578 28.2121 19.1518 26.7521 17.6881C25.9671 16.8989 25.2291 16.0733 24.666 15.1199C24.4441 14.7467 24.2608 14.3568 24.1762 13.9314C24.0361 13.2354 24.18 12.5815 24.5193 11.9611C24.8728 11.3146 25.372 10.7791 25.9361 10.2959C26.9401 9.43765 28.0786 8.77064 29.2669 8.17546C30.3386 7.63811 31.447 7.181 32.5788 6.77146C32.6747 6.73695 32.7593 6.73228 32.8562 6.76586C33.1636 6.87315 33.4719 6.9739 33.801 7.08305C33.4503 7.21552 33.1213 7.33306 32.7969 7.46273C31.4996 7.98328 30.2587 8.59992 29.1484 9.43299C28.4762 9.93768 27.8774 10.5095 27.4543 11.2279C27.1159 11.8016 26.958 12.4154 26.9993 13.074C27.0304 13.5694 27.2362 14.0032 27.506 14.4155C27.9479 15.0956 28.5007 15.6899 29.0958 16.2496C30.2671 17.3513 31.5579 18.3131 32.9032 19.2106C33.5791 19.6621 34.2738 20.0875 34.9601 20.525C34.9789 20.5362 34.9987 20.5502 35.0447 20.5838Z" fill="#0D984A"/>
</g>
<path d="M13.6348 35V27.8906H15.8223C16.4473 27.8906 17.0055 28.0322 17.4971 28.3154C17.9919 28.5954 18.3776 28.9958 18.6543 29.5166C18.931 30.0342 19.0693 30.6234 19.0693 31.2842V31.6113C19.0693 32.2721 18.9326 32.8597 18.6592 33.374C18.389 33.8883 18.0065 34.2871 17.5117 34.5703C17.0169 34.8535 16.4587 34.9967 15.8369 35H13.6348ZM15.0996 29.0771V33.8232H15.8076C16.3805 33.8232 16.8184 33.6361 17.1211 33.2617C17.4238 32.8874 17.5785 32.3519 17.585 31.6553V31.2793C17.585 30.5566 17.4352 30.0098 17.1357 29.6387C16.8363 29.2643 16.3984 29.0771 15.8223 29.0771H15.0996ZM20.1387 35V27.8906H22.6289C23.4915 27.8906 24.1458 28.0566 24.5918 28.3887C25.0378 28.7174 25.2607 29.2008 25.2607 29.8389C25.2607 30.1872 25.1712 30.4948 24.9922 30.7617C24.8132 31.0254 24.5641 31.2191 24.2451 31.3428C24.6097 31.4339 24.8962 31.6178 25.1045 31.8945C25.3161 32.1712 25.4219 32.5098 25.4219 32.9102C25.4219 33.5938 25.2038 34.1113 24.7676 34.4629C24.3314 34.8145 23.7096 34.9935 22.9023 35H20.1387ZM21.6035 31.9043V33.8232H22.8584C23.2035 33.8232 23.472 33.7419 23.6641 33.5791C23.8594 33.4131 23.957 33.1852 23.957 32.8955C23.957 32.2445 23.6201 31.9141 22.9463 31.9043H21.6035ZM21.6035 30.8691H22.6875C23.4264 30.8561 23.7959 30.5615 23.7959 29.9854C23.7959 29.6631 23.7015 29.432 23.5127 29.292C23.3271 29.1488 23.0326 29.0771 22.6289 29.0771H21.6035V30.8691ZM26.5254 35V27.8906H29.0156C29.8783 27.8906 30.5326 28.0566 30.9785 28.3887C31.4245 28.7174 31.6475 29.2008 31.6475 29.8389C31.6475 30.1872 31.5579 30.4948 31.3789 30.7617C31.1999 31.0254 30.9508 31.2191 30.6318 31.3428C30.9964 31.4339 31.2829 31.6178 31.4912 31.8945C31.7028 32.1712 31.8086 32.5098 31.8086 32.9102C31.8086 33.5938 31.5905 34.1113 31.1543 34.4629C30.7181 34.8145 30.0964 34.9935 29.2891 35H26.5254ZM27.9902 31.9043V33.8232H29.2451C29.5902 33.8232 29.8587 33.7419 30.0508 33.5791C30.2461 33.4131 30.3438 33.1852 30.3438 32.8955C30.3438 32.2445 30.0068 31.9141 29.333 31.9043H27.9902ZM27.9902 30.8691H29.0742C29.8132 30.8561 30.1826 30.5615 30.1826 29.9854C30.1826 29.6631 30.0882 29.432 29.8994 29.292C29.7139 29.1488 29.4193 29.0771 29.0156 29.0771H27.9902V30.8691ZM34.377 33.8232H37.4873V35H32.9121V27.8906H34.377V33.8232Z" fill="black"/>
<defs>
<linearGradient id="paint0_linear" x1="12.4763" y1="14.9618" x2="39.2677" y2="14.9618" gradientUnits="userSpaceOnUse">
<stop stop-color="#949494"/>
<stop offset="0.055" stop-color="#A6A6A6"/>
<stop offset="0.165" stop-color="#D5D5D5"/>
<stop offset="0.2527" stop-color="white"/>
<stop offset="0.3697" stop-color="#CACACA"/>
<stop offset="0.5142" stop-color="#8F8F8F"/>
<stop offset="0.621" stop-color="#6A6A6A"/>
<stop offset="0.6774" stop-color="#5C5C5C"/>
<stop offset="0.7181" stop-color="#636464"/>
<stop offset="0.7796" stop-color="#787878"/>
<stop offset="0.8543" stop-color="#9A9A9A"/>
<stop offset="0.9386" stop-color="#C9C9C9"/>
<stop offset="1" stop-color="#EFF0F0"/>
</linearGradient>
<linearGradient id="paint1_linear" x1="26.0207" y1="5.16814" x2="26.0207" y2="23.0191" gradientUnits="userSpaceOnUse">
<stop stop-color="#C2C4C6"/>
<stop offset="0.2146" stop-color="#DCDDDE"/>
<stop offset="0.4462" stop-color="white"/>
<stop offset="0.766" stop-color="#C2C4C6"/>
<stop offset="1" stop-color="#9C9FA1"/>
</linearGradient>
<clipPath id="clip0">
<rect width="28" height="17" fill="white" transform="translate(12 6)"/>
</clipPath>
</defs>
</svg>
