<svg width="51" height="40" viewBox="0 0 51 40" fill="none" xmlns="http://www.w3.org/2000/svg">
<path d="M48.87 0H2.13C0.953634 0 0 0.953634 0 2.13V37.87C0 39.0464 0.953634 40 2.13 40H48.87C50.0464 40 51 39.0464 51 37.87V2.13C51 0.953634 50.0464 0 48.87 0Z" fill="white"/>
<path d="M48.87 0.5H2.13C1.22978 0.5 0.5 1.22978 0.5 2.13V37.87C0.5 38.7702 1.22978 39.5 2.13 39.5H48.87C49.7702 39.5 50.5 38.7702 50.5 37.87V2.13C50.5 1.22978 49.7702 0.5 48.87 0.5Z" stroke="#9DADBC" stroke-opacity="0.36" stroke-miterlimit="10"/>
<path d="M16.1009 32.4539H15.5102V32.1018H17.1231V32.4539H16.5325V33.9646H16.1009V32.4539Z" fill="#77787B"/>
<path d="M17.8841 32.5675C17.9637 32.5334 18.0659 32.5107 18.1795 32.5107V32.8968C18.134 32.8968 18.1 32.8968 18.0886 32.8968C17.975 32.8968 17.8728 32.9309 17.8046 32.9991C17.7365 33.0672 17.7024 33.1695 17.7024 33.2944V33.9645H17.2935V32.5334H17.691V32.7265C17.7365 32.647 17.8046 32.6015 17.8841 32.5675Z" fill="#77787B"/>
<path d="M19.8719 32.5334V33.9646H19.4743V33.7828C19.4175 33.8396 19.3494 33.8964 19.2812 33.9191C19.2017 33.9532 19.1222 33.9646 19.0314 33.9646C18.8383 33.9646 18.6906 33.9078 18.5884 33.8055C18.4748 33.7033 18.4294 33.5329 18.4294 33.3285V32.5334H18.8383V33.283C18.8383 33.5102 18.9291 33.6238 19.1222 33.6238C19.2244 33.6238 19.304 33.5897 19.3607 33.5216C19.4175 33.4534 19.4516 33.3626 19.4516 33.2376V32.5334H19.8719Z" fill="#77787B"/>
<path d="M20.3944 33.9305C20.2808 33.8964 20.1899 33.8623 20.1218 33.8169L20.2581 33.5216C20.3262 33.567 20.3944 33.5897 20.4852 33.6238C20.5761 33.6465 20.667 33.6579 20.7465 33.6579C20.9169 33.6579 21.0077 33.6124 21.0077 33.5329C21.0077 33.4875 20.985 33.4648 20.9396 33.4421C20.8941 33.4193 20.8146 33.408 20.7238 33.3966C20.6102 33.3739 20.508 33.3625 20.4398 33.3398C20.3603 33.3171 20.3035 33.2717 20.2467 33.2149C20.1899 33.1581 20.1672 33.0786 20.1672 32.965C20.1672 32.8741 20.1899 32.7946 20.2467 32.7265C20.3035 32.6583 20.3717 32.6015 20.4739 32.5675C20.5761 32.5334 20.6897 32.5107 20.826 32.5107C20.9282 32.5107 21.0304 32.522 21.1327 32.5447C21.2349 32.5675 21.3144 32.6015 21.3826 32.6356L21.2463 32.9309C21.1213 32.8628 20.985 32.8287 20.8373 32.8287C20.7465 32.8287 20.6783 32.8401 20.6329 32.8628C20.5875 32.8855 20.5647 32.9196 20.5647 32.9536C20.5647 32.9991 20.5875 33.0331 20.6329 33.0445C20.6783 33.0672 20.7578 33.0786 20.8601 33.0899C20.9737 33.1127 21.0759 33.1354 21.144 33.1467C21.2235 33.1695 21.2803 33.2035 21.3371 33.2717C21.3939 33.3285 21.4166 33.408 21.4166 33.5102C21.4166 33.6011 21.3939 33.6806 21.3371 33.7487C21.2803 33.8169 21.2122 33.8737 21.11 33.9078C21.0077 33.9418 20.8828 33.9645 20.7465 33.9645C20.6215 33.9759 20.508 33.9645 20.3944 33.9305Z" fill="#77787B"/>
<path d="M22.5866 33.8851C22.5411 33.9191 22.4957 33.9418 22.4389 33.9532C22.3821 33.9646 22.3139 33.9759 22.2572 33.9759C22.0868 33.9759 21.9505 33.9305 21.8596 33.851C21.7687 33.7601 21.7233 33.6352 21.7233 33.4648V32.8742H21.4961V32.5561H21.712V32.204H22.1209V32.5561H22.473V32.8742H22.1209V33.4534C22.1209 33.5102 22.1322 33.5557 22.1663 33.5897C22.2004 33.6238 22.2458 33.6352 22.3026 33.6352C22.3707 33.6352 22.4275 33.6125 22.473 33.5784L22.5866 33.8851Z" fill="#77787B"/>
<path d="M24.8242 33.5557H23.9609L23.8019 33.9532H23.3589L24.1881 32.1018H24.6084L25.4375 33.9532H24.9832L24.8242 33.5557ZM24.6879 33.2376L24.3926 32.522L24.0972 33.2376H24.6879Z" fill="#77787B"/>
<path d="M26.4144 33.9532L26.0963 33.5102L25.7669 33.9532H25.3126L25.8578 33.2376L25.3239 32.5334H25.7896L26.0963 32.9537L26.403 32.5334H26.846L26.3121 33.2263L26.8687 33.9532H26.4144Z" fill="#77787B"/>
<path d="M27.1072 32.2608C27.0618 32.2153 27.0391 32.1586 27.0391 32.1018C27.0391 32.0336 27.0618 31.9768 27.1072 31.9427C27.1527 31.8973 27.2208 31.8746 27.289 31.8746C27.3685 31.8746 27.4253 31.8973 27.4707 31.9427C27.5161 31.9882 27.5388 32.0336 27.5388 32.1018C27.5388 32.1699 27.5161 32.2267 27.4707 32.2721C27.4253 32.3176 27.3571 32.3403 27.289 32.3403C27.2208 32.3289 27.1527 32.3062 27.1072 32.2608ZM27.0845 32.5334H27.4934V33.9645H27.0845V32.5334Z" fill="#77787B"/>
<path d="M28.97 32.6697C29.0836 32.7719 29.1518 32.9309 29.1518 33.1467V33.9646H28.7656V33.7828C28.6861 33.9191 28.5384 33.9873 28.3339 33.9873C28.2204 33.9873 28.1295 33.9646 28.05 33.9305C27.9705 33.8964 27.9137 33.8396 27.8682 33.7715C27.8228 33.7033 27.8001 33.6352 27.8001 33.5443C27.8001 33.408 27.8455 33.3058 27.9478 33.2263C28.05 33.1468 28.1976 33.1127 28.4135 33.1127H28.7428C28.7428 33.0218 28.7201 32.9537 28.6633 32.9082C28.6065 32.8628 28.527 32.8401 28.4135 32.8401C28.3339 32.8401 28.2658 32.8514 28.1863 32.8741C28.1181 32.8969 28.05 32.9309 28.0045 32.9764L27.8569 32.6924C27.9364 32.6356 28.0273 32.5902 28.1408 32.5675C28.2544 32.5334 28.3567 32.522 28.4816 32.522C28.6861 32.5107 28.8564 32.5675 28.97 32.6697ZM28.6179 33.6465C28.6747 33.6124 28.7088 33.567 28.7315 33.4989V33.3512H28.4475C28.2772 33.3512 28.1976 33.408 28.1976 33.5216C28.1976 33.5784 28.2204 33.6124 28.2544 33.6465C28.2885 33.6806 28.3567 33.692 28.4248 33.692C28.5043 33.7033 28.5611 33.6806 28.6179 33.6465Z" fill="#77787B"/>
<path d="M30.4466 33.8851C30.4012 33.9191 30.3558 33.9418 30.299 33.9532C30.2422 33.9646 30.174 33.9759 30.1172 33.9759C29.9469 33.9759 29.8105 33.9305 29.7197 33.851C29.6288 33.7715 29.5834 33.6352 29.5834 33.4648V32.8742H29.3676V32.5561H29.5834V32.204H29.9923V32.5561H30.3444V32.8742H29.9923V33.4534C29.9923 33.5102 30.0036 33.5557 30.0377 33.5897C30.0718 33.6238 30.1172 33.6352 30.174 33.6352C30.2422 33.6352 30.299 33.6125 30.3444 33.5784L30.4466 33.8851Z" fill="#77787B"/>
<path d="M31.7642 32.6697C31.8778 32.7719 31.9459 32.9309 31.9459 33.1467V33.9646H31.5598V33.7828C31.4802 33.9191 31.3326 33.9873 31.1281 33.9873C31.0145 33.9873 30.9237 33.9646 30.8442 33.9305C30.7647 33.8964 30.7079 33.8396 30.6624 33.7715C30.617 33.7033 30.5943 33.6352 30.5943 33.5443C30.5943 33.408 30.6397 33.3058 30.7419 33.2263C30.8442 33.1468 30.9918 33.1127 31.2076 33.1127H31.537C31.537 33.0218 31.5143 32.9537 31.4575 32.9082C31.4007 32.8628 31.3212 32.8401 31.2076 32.8401C31.1281 32.8401 31.06 32.8514 30.9805 32.8741C30.9123 32.8969 30.8442 32.9309 30.7987 32.9764L30.6511 32.6924C30.7306 32.6356 30.8215 32.5902 30.935 32.5675C31.0486 32.5334 31.1508 32.522 31.2758 32.522C31.4689 32.5107 31.6393 32.5675 31.7642 32.6697ZM31.4121 33.6465C31.4689 33.6124 31.503 33.567 31.5257 33.4989V33.3512H31.2417C31.0713 33.3512 30.9918 33.408 30.9918 33.5216C30.9918 33.5784 31.0145 33.6124 31.0486 33.6465C31.0941 33.6806 31.1508 33.692 31.219 33.692C31.2872 33.7033 31.3553 33.6806 31.4121 33.6465Z" fill="#77787B"/>
<path d="M34.3312 32.1813C34.4562 32.2381 34.547 32.3176 34.6152 32.4198C34.6833 32.522 34.7174 32.6356 34.7174 32.7833C34.7174 32.9196 34.6833 33.0332 34.6152 33.1354C34.547 33.2376 34.4562 33.3171 34.3312 33.3739C34.2063 33.4307 34.07 33.4534 33.8996 33.4534H33.5248V33.9646H33.0931V32.1131H33.8996C34.0586 32.1018 34.2063 32.1245 34.3312 32.1813ZM34.1722 33.0105C34.2403 32.9537 34.2744 32.8741 34.2744 32.7719C34.2744 32.6697 34.2403 32.5902 34.1722 32.5334C34.104 32.4766 34.0018 32.4539 33.8769 32.4539H33.5248V33.1013H33.8769C34.0018 33.1013 34.104 33.0672 34.1722 33.0105Z" fill="#77787B"/>
<path d="M36.0463 32.6697C36.1599 32.7719 36.2281 32.9309 36.2281 33.1467V33.9646H35.8419V33.7828C35.7624 33.9191 35.6147 33.9873 35.4103 33.9873C35.2967 33.9873 35.2058 33.9646 35.1263 33.9305C35.0468 33.8964 34.99 33.8396 34.9446 33.7715C34.8991 33.7033 34.8764 33.6352 34.8764 33.5443C34.8764 33.408 34.9219 33.3058 35.0241 33.2263C35.1263 33.1468 35.274 33.1127 35.4898 33.1127H35.8192C35.8192 33.0218 35.7965 32.9537 35.7397 32.9082C35.6829 32.8628 35.6034 32.8401 35.4898 32.8401C35.4103 32.8401 35.3421 32.8514 35.2626 32.8741C35.1945 32.8969 35.1263 32.9309 35.0809 32.9764L34.9332 32.6924C35.0127 32.6356 35.1036 32.5902 35.2172 32.5675C35.3308 32.5334 35.433 32.522 35.5579 32.522C35.7624 32.5107 35.9328 32.5675 36.0463 32.6697ZM35.6942 33.6465C35.751 33.6124 35.7851 33.567 35.8078 33.4989V33.3512H35.5239C35.3535 33.3512 35.274 33.408 35.274 33.5216C35.274 33.5784 35.2967 33.6124 35.3308 33.6465C35.3762 33.6806 35.433 33.692 35.5011 33.692C35.5806 33.7033 35.6488 33.6806 35.6942 33.6465Z" fill="#77787B"/>
<path d="M37.9886 32.5334L37.3412 34.0441C37.2731 34.2031 37.1936 34.328 37.1027 34.3962C37.0118 34.4643 36.8869 34.4984 36.7506 34.4984C36.6711 34.4984 36.6029 34.487 36.5348 34.4643C36.4666 34.4416 36.3985 34.4075 36.353 34.3735L36.5007 34.0781C36.5348 34.1009 36.5688 34.1236 36.6143 34.1463C36.6597 34.1576 36.6938 34.169 36.7392 34.169C36.796 34.169 36.8414 34.1576 36.8755 34.1236C36.9096 34.1009 36.9437 34.0554 36.9664 33.9873V33.9759L36.353 32.5334H36.7846L37.1822 33.4989L37.5797 32.5334H37.9886Z" fill="#77787B"/>
<path d="M33.5475 30.9886H19.5652C17.1118 30.9886 15.1127 29.0009 15.1127 26.5361V12.5538C15.1127 10.1004 17.1004 8.11268 19.5652 8.11268H33.5475C36.0009 8.11268 38 10.1004 38 12.5652V26.5475C37.9887 29.0009 36.0009 30.9886 33.5475 30.9886Z" fill="url(#paint0_linear_101_84)"/>
<path d="M28.1976 9.71423C21.5189 9.71423 16.1009 15.1322 16.1009 21.811C16.1009 25.4798 17.7365 28.7624 20.3035 30.9773H33.5475C36.0009 30.9773 38 28.9896 38 26.5248V14.7233C35.7965 11.6906 32.2299 9.71423 28.1976 9.71423Z" fill="url(#paint1_linear_101_84)"/>
<path d="M24.7447 29.4893C31.2311 29.4893 36.4893 24.2311 36.4893 17.7447C36.4893 11.2583 31.2311 6 24.7447 6C18.2583 6 13 11.2583 13 17.7447C13 24.2311 18.2583 29.4893 24.7447 29.4893Z" fill="url(#paint2_linear_101_84)"/>
<path d="M35.4451 20.9968C36.2445 16.0869 32.9123 11.4586 28.0024 10.6592C23.0925 9.85978 18.4642 13.192 17.6647 18.1019C16.8653 23.0118 20.1975 27.6401 25.1074 28.4395C30.0174 29.239 34.6457 25.9067 35.4451 20.9968Z" fill="white"/>
<path d="M22.0527 20.9137C22.0414 20.9705 22.0414 21.0045 22.0414 21.0273C22.0414 21.209 22.1436 21.2999 22.3367 21.2999C22.4389 21.2999 22.5638 21.2658 22.6888 21.209L22.8705 22.288C22.5979 22.4357 22.2458 22.5152 21.8142 22.5152C21.3712 22.5152 21.0191 22.413 20.7692 22.1972C20.5193 21.9814 20.383 21.686 20.383 21.2999C20.383 21.1749 20.3944 21.05 20.4284 20.9137L20.6329 19.9255H20.0877L20.3262 18.7442H20.8601L21.0759 17.6538H22.6888L22.473 18.7442H23.2681L23.0295 19.9255H22.2344L22.0527 20.9137Z" fill="url(#paint3_linear_101_84)"/>
<path d="M28.1977 18.5398L27.4253 22.4471H25.9032L25.9714 22.095C25.6761 22.3789 25.324 22.5266 24.9151 22.5266C24.6538 22.5266 24.3926 22.4584 24.1427 22.3108C23.8928 22.1631 23.6997 21.9587 23.5407 21.6861C23.3817 21.4134 23.3135 21.0954 23.3135 20.7206C23.3135 20.3003 23.4044 19.9255 23.5975 19.5847C23.7906 19.244 24.0404 18.9714 24.3585 18.7783C24.6765 18.5852 25.0173 18.483 25.3921 18.483C25.9146 18.483 26.2894 18.642 26.5052 18.9714L26.5961 18.5625H28.1977V18.5398ZM25.0968 21.0727C25.199 21.1863 25.3353 21.2431 25.5171 21.2431C25.7215 21.2431 25.8919 21.1636 26.0282 21.0045C26.1645 20.8455 26.2213 20.6297 26.2213 20.3571C26.2213 20.1754 26.1645 20.0277 26.0623 19.9141C25.96 19.8005 25.8237 19.7438 25.642 19.7438C25.4375 19.7438 25.2672 19.8233 25.1309 19.9823C24.9946 20.1413 24.9378 20.3571 24.9378 20.6297C24.9378 20.8228 24.9946 20.9705 25.0968 21.0727Z" fill="url(#paint4_linear_101_84)"/>
<path d="M32.1731 18.6874C32.423 18.8351 32.6161 19.0395 32.7751 19.3121C32.9341 19.5847 33.0023 19.9028 33.0023 20.2776C33.0023 20.6978 32.9114 21.0727 32.7183 21.4134C32.5252 21.7542 32.2753 22.0268 31.9573 22.2199C31.6393 22.413 31.2985 22.5152 30.9237 22.5152C30.4012 22.5152 30.0264 22.3562 29.8106 22.0268L29.4471 23.8214H27.8342L28.8905 18.5397H30.4126L30.3444 18.8918C30.6397 18.6079 30.9918 18.4602 31.4007 18.4602C31.6733 18.4716 31.9232 18.5397 32.1731 18.6874ZM31.1736 21.0045C31.3099 20.8455 31.3667 20.6297 31.3667 20.3571C31.3667 20.1754 31.3099 20.0277 31.2076 19.9141C31.1054 19.8005 30.9691 19.7437 30.7874 19.7437C30.5829 19.7437 30.4126 19.8232 30.2763 19.9823C30.14 20.1413 30.0832 20.3571 30.0832 20.6297C30.0832 20.8114 30.1286 20.9591 30.2308 21.0727C30.333 21.1863 30.4693 21.2431 30.6511 21.2431C30.8783 21.2431 31.0486 21.1635 31.1736 21.0045Z" fill="url(#paint5_linear_101_84)"/>
<defs>
<linearGradient id="paint0_linear_101_84" x1="36.7229" y1="8.84781" x2="16.0932" y2="30.552" gradientUnits="userSpaceOnUse">
<stop stop-color="#50B748"/>
<stop offset="0.4038" stop-color="#4FB74A"/>
<stop offset="0.5492" stop-color="#4EB851"/>
<stop offset="0.6529" stop-color="#4AB85C"/>
<stop offset="0.7368" stop-color="#45BA6D"/>
<stop offset="0.8085" stop-color="#3FBB83"/>
<stop offset="0.8721" stop-color="#37BD9F"/>
<stop offset="0.9296" stop-color="#2EBFBF"/>
<stop offset="0.9807" stop-color="#24C2E3"/>
<stop offset="1" stop-color="#1FC3F3"/>
</linearGradient>
<linearGradient id="paint1_linear_101_84" x1="18.3852" y1="13.5254" x2="37.833" y2="29.9647" gradientUnits="userSpaceOnUse">
<stop offset="0.1329" stop-color="#00934A"/>
<stop offset="0.8791" stop-color="#37B34A"/>
<stop offset="1" stop-color="#50B748"/>
</linearGradient>
<linearGradient id="paint2_linear_101_84" x1="16.9172" y1="9.39584" x2="32.5253" y2="26.0323" gradientUnits="userSpaceOnUse">
<stop stop-color="#EC1C24"/>
<stop offset="0.3115" stop-color="#E91C24"/>
<stop offset="0.5147" stop-color="#E11C24"/>
<stop offset="0.6869" stop-color="#D21D23"/>
<stop offset="0.8419" stop-color="#BD1D22"/>
<stop offset="0.984" stop-color="#A21E21"/>
<stop offset="1" stop-color="#9E1E21"/>
</linearGradient>
<linearGradient id="paint3_linear_101_84" x1="22.1563" y1="20.1158" x2="29.5276" y2="22.6431" gradientUnits="userSpaceOnUse">
<stop stop-color="#EC1C24"/>
<stop offset="1" stop-color="#50B748"/>
</linearGradient>
<linearGradient id="paint4_linear_101_84" x1="22.4793" y1="19.1736" x2="29.8506" y2="21.7009" gradientUnits="userSpaceOnUse">
<stop stop-color="#EC1C24"/>
<stop offset="1" stop-color="#50B748"/>
</linearGradient>
<linearGradient id="paint5_linear_101_84" x1="22.6378" y1="18.7118" x2="30.009" y2="21.2391" gradientUnits="userSpaceOnUse">
<stop stop-color="#EC1C24"/>
<stop offset="1" stop-color="#50B748"/>
</linearGradient>
</defs>
</svg>
