<svg xmlns="http://www.w3.org/2000/svg" width="51" height="40" viewBox="0 0 51 40">
  <g id="Group_334" data-name="Group 334" transform="translate(-508 -143)">
    <g id="Rectangle" transform="translate(508 143)" fill="#fff" stroke="rgba(157,173,188,0.36)" stroke-miterlimit="10" stroke-width="1">
      <rect width="51" height="40" rx="2.13" stroke="none"/>
      <rect x="0.5" y="0.5" width="50" height="39" rx="1.63" fill="none"/>
    </g>
    <g id="Group_328" data-name="Group 328" transform="translate(331.16 -284.62)">
      <rect id="Rectangle_59" data-name="Rectangle 59" width="37.394" height="15.737" transform="translate(183.84 439.62)" fill="none"/>
      <g id="Group_327" data-name="Group 327" transform="translate(183.84 439.62)">
        <path id="Path_33" data-name="Path 33" d="M198.519,489.27c0,.2-.008.4-.025.6a7.34,7.34,0,1,1-10.589-7.175,6.28,6.28,0,0,0-.527.79c-.013.022-.025.045-.038.068l-.007.006q-.146.119-.285.247-.17.156-.328.324c-.024.025-.048.05-.07.076s-.047.051-.07.077c-.039.043-.077.087-.113.132-.076.089-.148.18-.218.274a6.363,6.363,0,0,0-.758,1.308c-.02.046-.04.092-.058.138s-.043.11-.064.166c-.011.028-.021.055-.03.084-.031.085-.058.171-.085.257-.018.056-.034.113-.05.169-.009.03-.017.061-.025.09-.014.057-.029.114-.042.172-.043.184-.078.371-.1.561-.007.047-.013.1-.019.144s-.009.075-.012.113c-.006.056-.01.112-.014.168a.069.069,0,0,1,0,.014c0,.058-.007.116-.01.175,0,.095-.006.19-.006.286A6.411,6.411,0,0,0,197,491.618c.06-.11.118-.222.171-.335l0,0,0-.009a6.37,6.37,0,0,0,.607-2.524c0-.069,0-.139,0-.209q0-.314-.03-.62l.031.026c.1.082.2.167.289.255.09-.15.185-.295.287-.436a7.359,7.359,0,0,1,.126.859q.028.32.028.649" transform="translate(-183.84 -480.876)" fill="#ea2227"/>
        <path id="Path_34" data-name="Path 34" d="M223.319,507.928c0,.07,0,.14,0,.209a5.887,5.887,0,0,1-.607,2.524l0,.009,0,0c-.053.114-.111.226-.171.335a6.457,6.457,0,0,1-1.875,2.119,6.409,6.409,0,0,1-10.156-5.2c0-.1,0-.191.006-.286,0-.058.006-.117.01-.175,0,0,0-.009,0-.013,0-.056.008-.113.014-.168,0-.038.008-.075.012-.113s.012-.1.019-.144q.04-.284.1-.561c.013-.058.028-.115.042-.172.008-.03.017-.06.025-.09.016-.056.032-.113.05-.169.026-.086.055-.172.085-.257.009-.028.019-.056.031-.084.021-.056.042-.111.063-.165s.039-.092.058-.138a6.361,6.361,0,0,1,.758-1.308c.07-.094.142-.185.218-.274.037-.045.075-.089.113-.132.023-.026.045-.052.07-.077s.046-.051.07-.076q.158-.168.329-.324c.092-.086.188-.168.285-.247l.006-.006-.037.07c-.014.025-.027.051-.04.077a7.558,7.558,0,0,0-.7,2.587c-.023.254-.036.513-.036.776,0,3.351,1.968,6.066,4.4,6.066h.03c.075,0,.15.007.226.007a3.874,3.874,0,0,0,3.875-3.875c0-.036,0-.071,0-.107a3.86,3.86,0,0,0-1.192-2.69,6.4,6.4,0,0,1,3.868,1.422l.033.025c.02.2.031.411.031.621" transform="translate(-209.371 -500.269)" fill="#f69220"/>
        <path id="Path_35" data-name="Path 35" d="M222.7,506.406c0,.07,0,.14,0,.21a5.962,5.962,0,0,1-.617,2.55c-.052.112-.111.226-.171.335a6.519,6.519,0,0,1-1.884,2.129,6.438,6.438,0,0,1-7.825-10.219l.063-.051c-.013.023-.025.045-.038.068s-.025.047-.038.07a6.38,6.38,0,0,0,7.8,10.085,6.455,6.455,0,0,0,1.866-2.11c.06-.109.118-.221.171-.333a5.918,5.918,0,0,0,.611-2.524c0-.071,0-.141,0-.21,0-.2-.01-.412-.031-.617l0-.028.033.025.031.026c.018.2.028.4.028.594" transform="translate(-208.72 -498.746)" fill="#f69220"/>
        <path id="Path_36" data-name="Path 36" d="M298.643,448.061s-5.234-.987-7.693,3.562a6.257,6.257,0,0,1,4.175-4.577l-.741-1.383a5.34,5.34,0,0,1,4.129-1Z" transform="translate(-286.416 -444.392)" fill="#ea2227"/>
        <path id="Path_37" data-name="Path 37" d="M319.38,501.785s2.09-2.733,6.87-2.022l-.058-1.593A5.763,5.763,0,0,1,329.8,499.5l-1.99,3a5.78,5.78,0,0,0-4.2-1.629,9.327,9.327,0,0,0-4.236.911" transform="translate(-313.642 -495.691)" fill="#f69220"/>
        <path id="Path_38" data-name="Path 38" d="M259.187,448.186s-2.389-5.211,3.162-8.566l1.323,2.437a6.2,6.2,0,0,0-1.861,1.142,8.2,8.2,0,0,0-2.625,4.987" transform="translate(-255.508 -439.62)" fill="#f69220"/>
        <g id="Group_325" data-name="Group 325" transform="translate(18.182 3.896)">
          <g id="Group_323" data-name="Group 323" transform="translate(0.003)">
            <path id="Path_39" data-name="Path 39" d="M619.893,534.81h-6.272a.2.2,0,0,0-.2.2v.484a.2.2,0,0,0,.2.2h4.672v2.589a4.455,4.455,0,0,0-.445-.544,2.457,2.457,0,0,0-1.755-.85,1.5,1.5,0,0,0-1.239.7,2.162,2.162,0,0,0-.436,1.2,2.459,2.459,0,0,0,.379,1.413,1.768,1.768,0,0,0,1.544.769,1.234,1.234,0,0,0,1.313-1.132.979.979,0,0,0-.541-.884l-.344-.195v.4a.393.393,0,0,1-.011.079.471.471,0,0,0-.009.05.636.636,0,0,1-.562.365.858.858,0,0,1-.606-.243.58.58,0,0,1-.135-.413.851.851,0,0,1,.2-.51.654.654,0,0,1,.544-.269,1.8,1.8,0,0,1,1.574.913,2.843,2.843,0,0,1,.517,1.568l.014,1.306.922.567a.2.2,0,0,0,.305-.172h0v-6.7h.371a.2.2,0,0,0,.2-.2v-.484A.2.2,0,0,0,619.893,534.81Z" transform="translate(-613.42 -534.676)" fill="#ea2227"/>
            <path id="Path_40" data-name="Path 40" d="M782.044,531.781h-7.956a.2.2,0,0,0-.2.2h0v.88a3.115,3.115,0,0,0-2.091-1.214,2.328,2.328,0,0,0-1.507.453,1.465,1.465,0,0,0-.639,1.177c0,1.394,1.558,1.378,1.943,1.168a.5.5,0,0,1,.258-.088.418.418,0,0,1,.429.464c0,.324-.462.6-1.009.6a.685.685,0,0,1-.623-.265l-.243-.368-.164.41a.977.977,0,0,0-.089.37,1.166,1.166,0,0,0,.464.885,1.533,1.533,0,0,0,1.007.362,1.694,1.694,0,0,0,1.4-.645,1.936,1.936,0,0,0,.4-1.218,1.452,1.452,0,0,0-.3-.827,1.1,1.1,0,0,0-.909-.547,1.86,1.86,0,0,0-.442.088c-.07.019-.177.049-.2.051a.346.346,0,0,1-.226-.118.427.427,0,0,1-.125-.3.786.786,0,0,1,.878-.691h.025a1.649,1.649,0,0,1,1.1.53,3.351,3.351,0,0,1,.671.856v4.942l.925.547a.2.2,0,0,0,.1.028.2.2,0,0,0,.2-.2h0v-6.641h1.418v4.3l1.129.453a.2.2,0,0,0,.075.015.2.2,0,0,0,.2-.175l.005-.033a3.423,3.423,0,0,1,1.679-2.669c0,.072,0,.15,0,.234,0,.174.012.642.024.9a3.361,3.361,0,0,0,.026.339h0a7.337,7.337,0,0,0,.232,1.8c.3,1.069.83,1.306,1.222,1.317h.025a.714.714,0,0,0,.519-.174.541.541,0,0,0,.156-.4.978.978,0,0,0-.089-.461l-.085-.155-.171.041a.948.948,0,0,1-.282.044l-.033,0a.153.153,0,0,1-.093-.023c-.061-.032-.177-.137-.268-.476a4.012,4.012,0,0,1-.091-.776c0-1.386.287-2.436.731-2.675l.023-.011a.2.2,0,0,0,.086-.274l-.013-.025a1.973,1.973,0,0,0-1.305-.907l-.049-.013-.049.009A4.353,4.353,0,0,0,778.3,533.9c-.192.161-.37.318-.534.474v-1.712h4.279a.2.2,0,0,0,.2-.2v-.483A.2.2,0,0,0,782.044,531.781Z" transform="translate(-763.036 -531.647)" fill="#ea2227"/>
          </g>
          <g id="Group_324" data-name="Group 324" transform="translate(0 9.153)">
            <path id="Path_41" data-name="Path 41" d="M613.985,759v.385l.329-.132.1.093a.877.877,0,0,1,.009.11.45.45,0,0,1-.107.317.4.4,0,0,1-.31.122.486.486,0,0,1-.364-.174,1.045,1.045,0,0,1-.209-.36l.091-.06q.173.481.492.48a.273.273,0,0,0,.2-.089.29.29,0,0,0,.086-.208.266.266,0,0,0-.019-.1l-.3.13-.116-.092V759h-.523v-.1H614.5v.1Z" transform="translate(-613.35 -758.433)" fill="#231f20"/>
            <path id="Path_42" data-name="Path 42" d="M639.932,759v.892h-.117V759h-.145v-.1h.4v.1Z" transform="translate(-638.556 -758.433)" fill="#231f20"/>
            <path id="Path_43" data-name="Path 43" d="M648.858,759.019v.062a.473.473,0,0,1,.258.077.256.256,0,0,1,.137.218.212.212,0,0,1-.084.174.288.288,0,0,1-.186.062l-.027,0V759.5h.06a.112.112,0,0,0,.129-.125c0-.1-.1-.16-.286-.177v.719h-.109a.893.893,0,0,0-.2-.26.445.445,0,0,0-.287-.132l-.036-.137c.069-.049.238-.151.51-.307v-.058h-.552v-.1h1.142v.1h-.474Zm-.117.188a.6.6,0,0,0-.165.1l-.15.126a.641.641,0,0,1,.164.137c.026.03.076.088.152.173v-.537Z" transform="translate(-646.715 -758.452)" fill="#231f20"/>
            <path id="Path_44" data-name="Path 44" d="M685.8,748.163a.98.98,0,0,0-.5-.185.443.443,0,0,0-.288.087.327.327,0,0,0-.118.272h.122v.1H684.9v.889h-.119v-.889h-.124v-.1h.124a.426.426,0,0,1,.154-.35.567.567,0,0,1,.372-.117.729.729,0,0,1,.292.063,1.87,1.87,0,0,1,.265.15Z" transform="translate(-681.641 -747.87)" fill="#231f20"/>
            <path id="Path_45" data-name="Path 45" d="M692.885,759.01v.894h-.107a.812.812,0,0,0-.312-.257.916.916,0,0,0-.39-.13l-.037-.138a1.647,1.647,0,0,1,.351-.177l.382-.145v-.047h-.812v-.1h1.048v.1h-.122Zm-.113.178a5.745,5.745,0,0,0-.54.232,1.671,1.671,0,0,1,.54.31Z" transform="translate(-688.632 -758.442)" fill="#231f20"/>
            <path id="Path_46" data-name="Path 46" d="M715.68,758.9H716.8v.1H715.68Zm.637.987a.476.476,0,0,1-.353-.172.894.894,0,0,1-.2-.355l.07-.073a1.01,1.01,0,0,0,.17.323.393.393,0,0,0,.305.172.254.254,0,0,0,.207-.095.334.334,0,0,0,.076-.22.393.393,0,0,1-.229.082.279.279,0,0,1-.194-.073.235.235,0,0,1-.086-.185.243.243,0,0,1,.062-.174.228.228,0,0,1,.172-.064.214.214,0,0,1,.133.04.137.137,0,0,1,.052.117.159.159,0,0,1-.063.115l-.079-.059a.072.072,0,0,0,.04-.066c0-.038-.024-.057-.072-.057a.126.126,0,0,0-.094.038.132.132,0,0,0-.037.1.15.15,0,0,0,.051.117.175.175,0,0,0,.121.046.332.332,0,0,0,.247-.115l.108.112a.479.479,0,0,1-.108.315.371.371,0,0,1-.3.136" transform="translate(-711.348 -758.433)" fill="#231f20"/>
            <path id="Path_47" data-name="Path 47" d="M741.751,759v.892h-.116V759h-.145v-.1h.4v.1Z" transform="translate(-736.065 -758.433)" fill="#231f20"/>
            <path id="Path_48" data-name="Path 48" d="M750.431,759.958a.37.37,0,0,1-.261-.065.528.528,0,0,1-.062-.649A1.819,1.819,0,0,1,750.3,759h-.349v-.1h.56v.1a.608.608,0,0,0-.253.2.485.485,0,0,0-.118.3c0,.24.1.36.3.36a.151.151,0,0,0,.089-.036v.116a.2.2,0,0,1-.1.022" transform="translate(-744.167 -758.433)" fill="#231f20"/>
            <path id="Path_49" data-name="Path 49" d="M762.292,759v.88h-.116v-.587a.291.291,0,0,0-.05-.105.321.321,0,0,0-.277-.177.184.184,0,0,0-.122.058c-.011.011-.035.034-.074.068a.367.367,0,0,1,.125-.028.245.245,0,0,1,.143.042.15.15,0,0,1,.065.128.3.3,0,0,1-.078.2.4.4,0,0,1-.179.13l-.075-.1a.384.384,0,0,0,.14-.092.206.206,0,0,0,.079-.14c0-.028-.032-.05-.1-.067a.486.486,0,0,0-.129-.019.11.11,0,0,0-.041.008l-.058-.11a1.251,1.251,0,0,1,.128-.125.269.269,0,0,1,.165-.057.388.388,0,0,1,.332.205V758.9h.243v.1Z" transform="translate(-755.276 -758.433)" fill="#231f20"/>
            <path id="Path_50" data-name="Path 50" d="M782.041,759.01v.894h-.107a.807.807,0,0,0-.3-.255.881.881,0,0,0-.383-.125l-.037-.137a3.578,3.578,0,0,1,.711-.33v-.047h-.791v-.1h1.014v.1h-.1Zm-.114.178a2.969,2.969,0,0,0-.524.24,1.529,1.529,0,0,1,.524.3Zm-.3.748a.627.627,0,0,0-.169-.113l.05-.094a.53.53,0,0,1,.186.135Z" transform="translate(-774.027 -758.442)" fill="#231f20"/>
            <path id="Path_51" data-name="Path 51" d="M815.945,748.163a.978.978,0,0,0-.5-.185.443.443,0,0,0-.289.087.329.329,0,0,0-.119.272h.122v.1h-.122v.889h-.119v-.889H814.8v-.1h.124a.427.427,0,0,1,.154-.35.566.566,0,0,1,.372-.117.735.735,0,0,1,.293.063,1.915,1.915,0,0,1,.264.15Z" transform="translate(-806.272 -747.87)" fill="#231f20"/>
            <path id="Path_52" data-name="Path 52" d="M822.645,759v.385l.328-.132.1.093a.812.812,0,0,1,.009.11.451.451,0,0,1-.107.317.4.4,0,0,1-.31.122.484.484,0,0,1-.363-.174,1.032,1.032,0,0,1-.209-.36l.091-.06q.173.481.492.48a.274.274,0,0,0,.2-.089.29.29,0,0,0,.086-.208.265.265,0,0,0-.02-.1l-.3.13-.116-.092V759h-.522v-.1h1.151v.1Z" transform="translate(-813.177 -758.433)" fill="#231f20"/>
            <path id="Path_53" data-name="Path 53" d="M849.365,748.163a.98.98,0,0,0-.5-.185.444.444,0,0,0-.289.087.328.328,0,0,0-.119.272h.122v.1h-.122v.889h-.119v-.889h-.124v-.1h.124a.427.427,0,0,1,.154-.35.568.568,0,0,1,.373-.117.73.73,0,0,1,.292.063,1.89,1.89,0,0,1,.264.15Z" transform="translate(-838.277 -747.87)" fill="#231f20"/>
            <path id="Path_54" data-name="Path 54" d="M856.2,759a.241.241,0,0,0,.26.177.445.445,0,0,0,.053,0l.088.107a.819.819,0,0,0-.1.314.559.559,0,0,0,.055.3l-.079.042a.475.475,0,0,1-.082-.277.83.83,0,0,1,.02-.182q.009-.038.053-.19a.531.531,0,0,1-.242-.088.324.324,0,0,1-.145-.205.368.368,0,0,0-.185.288c0,.067.027.1.082.1a.187.187,0,0,0,.091-.027.165.165,0,0,0,.068-.063h.119a.363.363,0,0,1,.038.192q0,.34-.357.34a.309.309,0,0,1-.137-.035c-.019-.009-.06-.033-.121-.072-.039-.061-.089-.156-.154-.285l.066-.063a1.091,1.091,0,0,0,.167.29l.006-.008.08.04a.189.189,0,0,0,.085.024.277.277,0,0,0,.175-.053.193.193,0,0,0,.075-.162.17.17,0,0,0-.03-.1.246.246,0,0,1-.182.092.169.169,0,0,1-.141-.062.239.239,0,0,1-.049-.155.476.476,0,0,1,.12-.278h-.451v-.1h1.24v.1Z" transform="translate(-845.201 -758.433)" fill="#231f20"/>
            <path id="Path_55" data-name="Path 55" d="M884.145,751.157v.779l.064,0a.569.569,0,0,0,.294-.077.271.271,0,0,0,.175-.23c0-.1-.049-.155-.147-.155a.4.4,0,0,0-.149.06l-.046-.1a.4.4,0,0,1,.242-.072.2.2,0,0,1,.167.08.3.3,0,0,1,.053.182.344.344,0,0,1-.143.269.644.644,0,0,1-.283.133,1.832,1.832,0,0,1-.344.024v-.892h-.1v-.1h.7l0-.031a.2.2,0,0,0-.083-.163.282.282,0,0,0-.178-.058.805.805,0,0,0-.346.117l-.035-.082a.752.752,0,0,1,.393-.128.367.367,0,0,1,.258.1.321.321,0,0,1,.108.248h.133v.1Z" transform="translate(-872.476 -750.59)" fill="#231f20"/>
            <path id="Path_56" data-name="Path 56" d="M906.071,759v.892h-.117V759h-.145v-.1h.395v.1Z" transform="translate(-893.429 -758.433)" fill="#231f20"/>
            <path id="Path_57" data-name="Path 57" d="M915.347,758.991v.892h-.109c0-.021,0-.052,0-.092s0-.071,0-.092c0-.21-.053-.315-.16-.315a.125.125,0,0,0-.1.057.208.208,0,0,0-.043.111h-.134a.223.223,0,0,0-.043-.12.132.132,0,0,0-.223,0,.223.223,0,0,0-.037.132q0,.165.2.165l.042,0-.039.116-.045,0a.274.274,0,0,1-.207-.085.3.3,0,0,1-.081-.213.3.3,0,0,1,.078-.214.275.275,0,0,1,.21-.082.263.263,0,0,1,.221.152c.068-.1.137-.152.208-.152s.109.047.149.142v-.4h-.959v-.1h1.182v.1h-.115Z" transform="translate(-901.541 -758.423)" fill="#231f20"/>
            <path id="Path_58" data-name="Path 58" d="M953.9,759.484a.449.449,0,0,0,.042.188.16.16,0,0,0,.143.114.177.177,0,0,0,.087-.025l.036.1a.234.234,0,0,1-.116.032q-.292,0-.292-.459a.8.8,0,0,1,.326-.546h.169v.1a.429.429,0,0,0-.283.177.509.509,0,0,0-.112.318" transform="translate(-939.388 -758.423)" fill="#231f20"/>
            <path id="Path_59" data-name="Path 59" d="M964.538,758.991v.892h-.109c0-.021,0-.052,0-.092s0-.071,0-.092q0-.315-.16-.315a.125.125,0,0,0-.1.057.211.211,0,0,0-.043.111H964a.216.216,0,0,0-.043-.12.131.131,0,0,0-.107-.062.135.135,0,0,0-.117.06.229.229,0,0,0-.036.132c0,.11.066.165.2.165l.042,0-.039.116-.045,0a.272.272,0,0,1-.207-.085.328.328,0,0,1,0-.427.276.276,0,0,1,.209-.082.262.262,0,0,1,.22.152c.067-.1.137-.152.209-.152s.108.047.148.142v-.4h-.959v-.1h1.183v.1h-.115Z" transform="translate(-948.648 -758.423)" fill="#231f20"/>
            <path id="Path_60" data-name="Path 60" d="M991.367,759v.892h-.116v-.068a.4.4,0,0,0-.151-.279.431.431,0,0,0-.286-.145.165.165,0,0,0-.111.042.134.134,0,0,0-.047.1.139.139,0,0,0,.044.105.154.154,0,0,0,.108.042.2.2,0,0,0,.076-.016l.036.11a.337.337,0,0,1-.145.025.219.219,0,0,1-.171-.078.27.27,0,0,1-.068-.182.258.258,0,0,1,.075-.19.248.248,0,0,1,.187-.078.548.548,0,0,1,.453.3V759h-.811v-.1h1.027v.1Z" transform="translate(-974.477 -758.433)" fill="#231f20"/>
            <path id="Path_61" data-name="Path 61" d="M1014.351,759.958a.37.37,0,0,1-.261-.065.527.527,0,0,1-.145-.377.52.52,0,0,1,.084-.272,1.835,1.835,0,0,1,.19-.243h-.349v-.1h.56v.1a.615.615,0,0,0-.254.2.49.49,0,0,0-.118.3c0,.24.1.36.3.36a.155.155,0,0,0,.09-.036v.116a.2.2,0,0,1-.1.022" transform="translate(-996.915 -758.433)" fill="#231f20"/>
            <path id="Path_62" data-name="Path 62" d="M1023.577,759.01v.4a2.584,2.584,0,0,1,.463-.248l.114.149a.974.974,0,0,0-.087.334.769.769,0,0,0,.052.254l-.086.04a.82.82,0,0,1-.065-.245,1.957,1.957,0,0,1,.037-.37,1.8,1.8,0,0,0-.449.294l-.1-.092v-.512h-.09v-.1h.866v.1h-.659Z" transform="translate(-1006.013 -758.442)" fill="#231f20"/>
            <path id="Path_63" data-name="Path 63" d="M1043.628,759v.892h-.116v-.068a.4.4,0,0,0-.151-.279.432.432,0,0,0-.286-.145.164.164,0,0,0-.111.042.133.133,0,0,0-.047.1.142.142,0,0,0,.043.105.154.154,0,0,0,.109.042.2.2,0,0,0,.077-.016l.034.11a.336.336,0,0,1-.145.025.218.218,0,0,1-.17-.078.27.27,0,0,1-.069-.182.26.26,0,0,1,.075-.19.249.249,0,0,1,.187-.078.549.549,0,0,1,.454.3V759h-.811v-.1h1.029v.1Z" transform="translate(-1024.524 -758.433)" fill="#231f20"/>
          </g>
        </g>
        <g id="Group_326" data-name="Group 326" transform="translate(4.124 6.388)">
          <path id="Path_64" data-name="Path 64" d="M335.49,591.282s-.447.1-.435-.129c.006-.077.052-.106.1-.1,0-.042-.087-.163.108-.21a1,1,0,0,0,.143-.227c.019-.058.073-.138.25-.1a.793.793,0,0,1,.4.258c.1,0,.212.019.173.04s-.062.06-.054.066.064.038-.117.042c.006.038.041.048.072.066s-.009.042,0,.05.025.1-.066.06-.1-.066-.123-.062-.091.014-.081.039.1.083-.014.1c-.023.021.036.054-.008.071s-.235.167-.327.2c-.09,0-.119-.025-.111-.062s.048-.065.106-.071c0-.025.007-.044-.008-.042" transform="translate(-332.777 -590.509)" fill="#ec1c24"/>
          <path id="Path_65" data-name="Path 65" d="M341.627,611.086c-.044,0-.171-.085-.1-.133a3.425,3.425,0,0,1,.433-.26c.066-.019.154.069.073.136s-.4.258-.4.258" transform="translate(-338.954 -609.835)" fill="#ec1c24"/>
          <path id="Path_66" data-name="Path 66" d="M355.363,608.1a2.026,2.026,0,0,1,.05-.277c0-.038.152-.054.117.108s-.159.219-.167.169" transform="translate(-352.226 -607.064)" fill="#ec1c24"/>
          <path id="Path_67" data-name="Path 67" d="M354.364,606.35a7.344,7.344,0,0,1,.9,0,1.146,1.146,0,0,1,.285.871c-.069.391-.19.491-.728.555a2.133,2.133,0,0,0-.081-.542c-.053-.089-.233-.294-.316-.291,0,.091-.017.363-.017.363s-.266.019-.3-.036c-.005-.1,0-.408,0-.408a1.784,1.784,0,0,0,.26-.266c.04.022.046.149.345.121-.006-.029-.355.007-.345-.366" transform="translate(-351.019 -605.663)" fill="#ec1c24"/>
          <path id="Path_68" data-name="Path 68" d="M345.275,615.37s-.264.223-.316.265c-.028.072-.058.3.286.3.022-.139.03-.565.03-.565" transform="translate(-342.248 -614.318)" fill="#ec1c24"/>
          <path id="Path_69" data-name="Path 69" d="M334.625,618.631c-.08,0-.15-.021-.141-.088a.187.187,0,0,1,.2-.119c.075.016.2.05.2.336a.663.663,0,0,0,.422.186c.2.011.324-.014.324.047v.388a1.988,1.988,0,0,1-.843-.43.271.271,0,0,1-.077-.208c-.005-.064-.05-.112-.078-.113" transform="translate(-332.231 -617.24)" fill="#ec1c24"/>
          <path id="Path_70" data-name="Path 70" d="M327.819,624.439c-.1,0-.391.242-.176.343a1.073,1.073,0,0,0,.114-.118s-.053.14.061.175.07-.07.132-.066c.035.057.044.092.1.092s.074-.171,0-.268-.123-.154-.233-.158" transform="translate(-325.606 -623.003)" fill="#ec1c24"/>
          <path id="Path_71" data-name="Path 71" d="M362.8,625.179v.767s.256-.079.281-.143c-.01-.133-.052-.628-.281-.623" transform="translate(-359.349 -623.711)" fill="#ec1c24"/>
          <path id="Path_72" data-name="Path 72" d="M348.34,637.14a3.6,3.6,0,0,0,.488.28c-.027.034-.154.2-.2.185a1.1,1.1,0,0,1-.29-.466" transform="translate(-345.501 -635.166)" fill="#ec1c24"/>
          <path id="Path_73" data-name="Path 73" d="M313.973,644.168h-.387l-.026-.148h.413Z" transform="translate(-312.193 -641.755)" fill="#ec1c24"/>
          <path id="Path_74" data-name="Path 74" d="M378.975,642.366h1.431v-.216H378.69Z" transform="translate(-374.566 -639.964)" fill="#ec1c24"/>
          <path id="Path_75" data-name="Path 75" d="M359.633,641.715c.031-.032.227.129.171.159a3.658,3.658,0,0,1-.641.236c-.052-.018-.035-.153.017-.18a1.818,1.818,0,0,0,.453-.215" transform="translate(-355.835 -639.543)" fill="#ec1c24"/>
          <path id="Path_76" data-name="Path 76" d="M350.323,645.954c-.064-.033-.407.3-.257.324a4.508,4.508,0,0,1,.61.138c.085-.038.165-.109.15-.15.059,0,.159.094.235.059a3.42,3.42,0,0,0,.527-.389.8.8,0,0,0-.348-.177c-.076,0-.642.337-.919.2" transform="translate(-347.118 -643.42)" fill="#ec1c24"/>
          <path id="Path_77" data-name="Path 77" d="M329.809,654.784a3.057,3.057,0,0,0,.58.144c.109-.021.13-.127.191-.121s.091.062.194,0a2.124,2.124,0,0,0,.318-.265c.006.068,0,.253-.4.433s-1.325.445-1.349.572a.439.439,0,0,0,.229-.065.4.4,0,0,1,.118.362c-.024.2-.177.545-.177.642s-.009.524,0,.568.08.289-.038.271a.765.765,0,0,0-.235-.012c-.047.009-.141.085-.224.074s-.224-.053-.218-.094.1-.041.177-.071.133-.118.286-.174c-.006-.1-.051-.844-.051-1a1.852,1.852,0,0,1,.016-.618c.069-.138.423-.648.587-.641" transform="translate(-326.784 -651.829)" fill="#ec1c24"/>
          <path id="Path_78" data-name="Path 78" d="M366.083,663.629c-.011.048.268.722.387.733a11.331,11.331,0,0,1,1.44-.163c.063.085.2.248.19.338a1.01,1.01,0,0,1,.011.232.162.162,0,0,0,.153-.085,4.005,4.005,0,0,0,.014-.411c.008-.052.14-.318-.039-.313a4.939,4.939,0,0,1-.861-.041,1.593,1.593,0,0,0-.636-.066.492.492,0,0,0-.2.244c-.039.009-.051-.03-.012-.145a2.1,2.1,0,0,0,.16-.642c-.136.048-.6.319-.6.319" transform="translate(-362.493 -660.228)" fill="#ec1c24"/>
          <path id="Path_79" data-name="Path 79" d="M330.85,645.262a.28.28,0,0,0,.062.113l-.889-.057s-.1-.064-.062-.079Z" transform="translate(-327.891 -642.923)" fill="#ec1c24"/>
          <path id="Path_80" data-name="Path 80" d="M325.438,640.266h.889a.7.7,0,0,1-.091-.166c-.156,0-.82.013-.82.013s-.1-.007-.1.167c0,.047.071.117.118-.013" transform="translate(-323.455 -638.001)" fill="#ec1c24"/>
          <path id="Path_81" data-name="Path 81" d="M282.4,639.9h.182s.059-.025,0-.1-.174-.109-.091-.232c-.086-.015-.212-.041-.191.232h-.088a.219.219,0,0,0-.235-.156,3.056,3.056,0,0,0-.709.209,5.63,5.63,0,0,0,.712.156.326.326,0,0,0,.238-.141h.071a.667.667,0,0,0,.068.153c0,.074,0,.173,0,.173a.123.123,0,0,0-.074.133c.012.1.068.1.085.1s.041-.032.112-.032a.145.145,0,0,0-.056-.188c0-.059-.006-.124-.006-.124s.074-.047.065-.089-.085-.04-.085-.1" transform="translate(-281.27 -637.485)" fill="#ec1c24"/>
          <path id="Path_82" data-name="Path 82" d="M316.354,647.747l.005,0a.231.231,0,0,0,.082-.124v-.007s-.008-.406-.008-.523c0-.134-.226-.221-.235-.225l-.014-.005-.011.01a.248.248,0,0,1-.124.064.17.17,0,0,1-.143-.064l-.007-.007h-.01c-.182,0-.27.219-.274.228l0,.008a4.306,4.306,0,0,0,0,.484.393.393,0,0,0,.08.136c-.036.128-.221.822.027.91v.119h.6v-.125c.226-.1.082-.7.034-.876m-.69-.642c.011-.026.086-.187.218-.194a.212.212,0,0,0,.169.07.266.266,0,0,0,.144-.067c.063.027.192.1.192.175,0,.112.007.481.008.521a.19.19,0,0,1-.055.089l-.118,0v-.227h-.4v.221h-.082a.359.359,0,0,1-.072-.119,4.158,4.158,0,0,1,0-.467m.415,1.424h-.108a.047.047,0,1,1,0-.095h.108a.047.047,0,1,1,0,.095m.224.049-.293-.327-.269.334h0c-.181-.059-.066-.616,0-.848l.563.009c.064.23.168.749,0,.832" transform="translate(-314.143 -644.474)" fill="#ec1c24"/>
          <path id="Path_83" data-name="Path 83" d="M320.2,669.573a.117.117,0,0,0-.018-.163h-.351c-.112,0-.076.156-.076.156l.222.19a.78.78,0,0,0,.223-.183" transform="translate(-318.121 -666.07)" fill="#ec1c24"/>
          <path id="Path_84" data-name="Path 84" d="M326.94,675.194l.21.253s-.022-.3-.03-.4c-.05.008-.18.144-.18.144" transform="translate(-325.007 -671.471)" fill="#ec1c24"/>
          <path id="Path_85" data-name="Path 85" d="M318.97,675.05c-.008.1-.03.4-.03.4l.21-.253s-.13-.136-.18-.144" transform="translate(-317.345 -671.471)" fill="#ec1c24"/>
          <path id="Path_86" data-name="Path 86" d="M321.168,658h.037v-.036a.037.037,0,0,0-.037-.037h-.331a.037.037,0,0,0-.037.037V658h.368Z" transform="translate(-319.127 -655.076)" fill="#ec1c24"/>
          <path id="Path_87" data-name="Path 87" d="M317.2,692.29h-.039v.04a.04.04,0,0,0,.039.04h.618a.04.04,0,0,0,.04-.04v-.04H317.2Z" transform="translate(-315.641 -687.981)" fill="#ec1c24"/>
        </g>
      </g>
    </g>
  </g>
</svg>
