<svg width="21" height="26" viewBox="0 0 21 26" fill="none" xmlns="http://www.w3.org/2000/svg">
<path d="M15.8362 5.21078L15.8357 5.21023C13.6058 2.57906 11.401 0.861815 11.2792 0.766928L11.2775 0.765636L11.2775 0.765631L11.2755 0.764027C10.4592 0.134936 9.24 0.698113 9.24 1.75069V5.05069C9.24 6.22609 7.63984 6.67188 7.03329 5.62104L7.03294 5.62045C6.589 4.85377 5.5223 4.78389 4.9675 5.44705L4.96623 5.44857C2.64472 8.24602 0.5 11.8524 0.5 15.6257C0.5 21.0784 4.99087 25.5007 10.5 25.5007C16.0091 25.5007 20.5 21.0784 20.5 15.6257C20.5 11.7546 18.2419 8.05775 15.8362 5.21078ZM8.0458 19.1506L8.04458 19.1521C7.95974 19.2607 7.79319 19.2829 7.68013 19.1956L7.67736 19.1935C7.56822 19.1104 7.55032 18.9566 7.63326 18.852L7.63419 18.8508L12.9542 12.1008L12.9554 12.0992C13.0403 11.9907 13.2068 11.9685 13.3199 12.0558L13.3226 12.0579C13.4318 12.141 13.4497 12.2948 13.3667 12.3994L13.3658 12.4006L8.0458 19.1506ZM6.82 13.0007C6.82 12.4581 7.27388 12.0007 7.84 12.0007C8.40715 12.0007 8.86 12.4544 8.86 13.0007C8.86 13.5433 8.40612 14.0007 7.84 14.0007C7.27285 14.0007 6.82 13.547 6.82 13.0007ZM13.16 19.2507C12.5929 19.2507 12.14 18.797 12.14 18.2507C12.14 17.7081 12.5939 17.2507 13.16 17.2507C13.7271 17.2507 14.18 17.7044 14.18 18.2507C14.18 18.797 13.7271 19.2507 13.16 19.2507Z" fill="#E5F5FD" stroke="#1C3C6B"/>
</svg>
