<svg width="51" height="51" viewBox="0 0 51 51" fill="none" xmlns="http://www.w3.org/2000/svg">
<path d="M44.4245 44.6375V47.2142C44.4245 48.7549 45.6735 50.0039 47.2142 50.0039C48.7549 50.0039 50.0039 48.7549 50.0039 47.2142V9.36328C50.0039 7.16281 48.22 5.37891 46.0195 5.37891H38.25H11.3229H8.34961C6.14914 5.37891 4.36523 7.16281 4.36523 9.36328V44.6375H44.4245Z" fill="white"/>
<path d="M44.4258 47.2148V44.6397L44.4246 44.6375H0.996094V47.2148C0.996094 48.7552 2.2448 50.0039 3.78516 50.0039H47.2142C45.6742 50.0036 44.4258 48.755 44.4258 47.2148Z" fill="#C7EAFF"/>
<path d="M49.9541 13.6465H4.43262V9.36328C4.43262 7.16281 6.21652 5.37891 8.41699 5.37891H45.9697C48.1702 5.37891 49.9541 7.16281 49.9541 9.36328V13.6465Z" fill="#FCCD03"/>
<path d="M22.5361 36.8555C20.9958 36.8555 19.7471 35.6068 19.7471 34.0664C19.7471 32.526 20.9958 31.2773 22.5361 31.2773C24.0765 31.2773 25.3252 32.526 25.3252 34.0664C25.3252 35.6068 24.0765 36.8555 22.5361 36.8555Z" fill="#A5DDFF"/>
<path d="M31.833 36.8555C30.2926 36.8555 29.0439 35.6068 29.0439 34.0664C29.0439 32.526 30.2926 31.2773 31.833 31.2773C33.3734 31.2773 34.6221 32.526 34.6221 34.0664C34.6221 35.6068 33.3734 36.8555 31.833 36.8555Z" fill="#A5DDFF"/>
<path d="M41.1299 36.8555C39.5895 36.8555 38.3408 35.6068 38.3408 34.0664C38.3408 32.526 39.5895 31.2773 41.1299 31.2773C42.6702 31.2773 43.9189 32.526 43.9189 34.0664C43.9189 35.6068 42.6702 36.8555 41.1299 36.8555Z" fill="#43CAF9"/>
<path d="M13.2393 26.4961C11.6989 26.4961 10.4502 25.2474 10.4502 23.707C10.4502 22.1667 11.6989 20.918 13.2393 20.918C14.7796 20.918 16.0283 22.1667 16.0283 23.707C16.0283 25.2474 14.7796 26.4961 13.2393 26.4961Z" fill="#A5DDFF"/>
<path d="M31.833 26.4961C30.2926 26.4961 29.0439 25.2474 29.0439 23.707C29.0439 22.1667 30.2926 20.918 31.833 20.918C33.3734 20.918 34.6221 22.1667 34.6221 23.707C34.6221 25.2474 33.3734 26.4961 31.833 26.4961Z" fill="#A5DDFF"/>
<path d="M22.5361 26.4961C20.9958 26.4961 19.7471 25.2474 19.7471 23.707C19.7471 22.1667 20.9958 20.918 22.5361 20.918C24.0765 20.918 25.3252 22.1667 25.3252 23.707C25.3252 25.2474 24.0765 26.4961 22.5361 26.4961Z" fill="#A5DDFF"/>
<path d="M41.1299 26.4961C39.5895 26.4961 38.3408 25.2474 38.3408 23.707C38.3408 22.1667 39.5895 20.918 41.1299 20.918C42.6702 20.918 43.9189 22.1667 43.9189 23.707C43.9189 25.2474 42.6702 26.4961 41.1299 26.4961Z" fill="#E5F5FD"/>
<path d="M9.0127 44.625C12.9736 44.625 16.1846 41.414 16.1846 37.4531C16.1846 33.4922 12.9736 30.2812 9.0127 30.2812C5.05178 30.2812 1.84082 33.4922 1.84082 37.4531C1.84082 41.414 5.05178 44.625 9.0127 44.625Z" fill="#E5F5FD"/>
<path d="M15.5723 9.6123C14.472 9.6123 13.5801 8.7204 13.5801 7.62012V2.98828C13.5801 1.888 14.472 0.996094 15.5723 0.996094C16.6726 0.996094 17.5645 1.888 17.5645 2.98828V7.62012C17.5645 8.7204 16.6726 9.6123 15.5723 9.6123Z" fill="white"/>
<path d="M38.2832 9.6123C37.1829 9.6123 36.291 8.7204 36.291 7.62012V2.98828C36.291 1.888 37.1829 0.996094 38.2832 0.996094C39.3835 0.996094 40.2754 1.888 40.2754 2.98828V7.62012C40.2754 8.7204 39.3835 9.6123 38.2832 9.6123Z" fill="white"/>
<path d="M46.0195 4.38281H41.2715V2.98828C41.2715 1.34054 39.9309 0 38.2832 0C36.6354 0 35.2949 1.34054 35.2949 2.98828V4.38281H18.5605V2.98828C18.5605 1.34054 17.22 0 15.5722 0C13.9245 0 12.584 1.34054 12.584 2.98828V4.41967C12.4993 4.39626 12.4105 4.38281 12.3184 4.38281H8.34956C5.60333 4.38281 3.36909 6.61705 3.36909 9.36328V26.33C3.36909 26.8802 3.81514 27.3261 4.36518 27.3261C4.91522 27.3261 5.36128 26.8802 5.36128 26.33V14.6426H41.2715C41.8215 14.6426 42.2675 14.1966 42.2675 13.6465C42.2675 13.0963 41.8215 12.6504 41.2715 12.6504H5.36128V9.36328C5.36128 7.71554 6.70182 6.375 8.34956 6.375H12.3184C12.4105 6.375 12.4993 6.36145 12.584 6.33814V7.62012C12.584 9.26786 13.9245 10.6084 15.5722 10.6084C17.22 10.6084 18.5605 9.26786 18.5605 7.62012V6.375H35.2949V7.62012C35.2949 9.26786 36.6354 10.6084 38.2832 10.6084C39.9309 10.6084 41.2715 9.26786 41.2715 7.62012V6.375H46.0195C47.6673 6.375 49.0078 7.71554 49.0078 9.36328V47.2142C49.0078 48.2032 48.2033 49.0078 47.2142 49.0078C46.2252 49.0078 45.4207 48.2032 45.4207 47.2142V44.6375C45.4207 44.0873 44.9746 43.6414 44.4246 43.6414H32.8379C32.2879 43.6414 31.8418 44.0873 31.8418 44.6375C31.8418 45.1876 32.2879 45.6335 32.8379 45.6335H43.4285V47.2142C43.4285 47.8628 43.5926 48.4736 43.8812 49.0078H3.78516C2.79653 49.0078 1.99219 48.2035 1.99219 47.2148V45.6335H24.2873C24.8373 45.6335 25.2833 45.1876 25.2833 44.6375C25.2833 44.0873 24.8373 43.6414 24.2873 43.6414H14.3347C16.0753 42.1423 17.1805 39.925 17.1805 37.4531C17.1805 32.9493 13.5164 29.2852 9.01256 29.2852C4.50872 29.2852 0.844588 32.9493 0.844588 37.4531C0.844588 39.925 1.94985 42.1423 3.69043 43.6414H0.996094C0.446051 43.6414 0 44.0873 0 44.6375V47.2148C0 49.302 1.69804 51 3.78516 51H47.2142C49.3017 51 51 49.3018 51 47.2142V9.36328C51 6.61705 48.7658 4.38281 46.0195 4.38281ZM16.5683 7.62012C16.5683 8.16936 16.1215 8.61621 15.5722 8.61621C15.023 8.61621 14.5761 8.16936 14.5761 7.62012V2.98828C14.5761 2.43904 15.023 1.99219 15.5722 1.99219C16.1215 1.99219 16.5683 2.43904 16.5683 2.98828V7.62012ZM39.2793 7.62012C39.2793 8.16936 38.8324 8.61621 38.2832 8.61621C37.7339 8.61621 37.2871 8.16936 37.2871 7.62012V2.98828C37.2871 2.43904 37.7339 1.99219 38.2832 1.99219C38.8324 1.99219 39.2793 2.43904 39.2793 2.98828V7.62012ZM2.83678 37.4531C2.83678 34.0478 5.60721 31.2773 9.01256 31.2773C12.4179 31.2773 15.1883 34.0478 15.1883 37.4531C15.1883 40.8585 12.4179 43.6289 9.01256 43.6289C5.60721 43.6289 2.83678 40.8585 2.83678 37.4531Z" fill="#1C3C6B"/>
<path d="M45.9438 14.6426C46.2058 14.6426 46.4628 14.536 46.648 14.3507C46.8333 14.1654 46.9399 13.9085 46.9399 13.6465C46.9399 13.3845 46.8334 13.1275 46.648 12.9422C46.4628 12.757 46.2058 12.6504 45.9438 12.6504C45.6818 12.6504 45.4249 12.757 45.2396 12.9422C45.0543 13.1275 44.9478 13.3845 44.9478 13.6465C44.9478 13.9085 45.0542 14.1654 45.2396 14.3507C45.425 14.536 45.6818 14.6426 45.9438 14.6426Z" fill="#1C3C6B"/>
<path d="M28.3397 43.9327C28.1544 44.119 28.0479 44.375 28.0479 44.6369C28.0479 44.8999 28.1543 45.1559 28.3397 45.3422C28.525 45.5275 28.782 45.633 29.0439 45.633C29.3059 45.633 29.5629 45.5275 29.7481 45.3422C29.9334 45.1559 30.04 44.8989 30.04 44.6369C30.04 44.375 29.9335 44.119 29.7481 43.9327C29.5629 43.7474 29.3059 43.6418 29.0439 43.6418C28.782 43.6418 28.525 43.7474 28.3397 43.9327Z" fill="#1C3C6B"/>
<path d="M22.5361 37.8516C24.6232 37.8516 26.3213 36.1535 26.3213 34.0664C26.3213 31.9793 24.6232 30.2812 22.5361 30.2812C20.449 30.2812 18.751 31.9793 18.751 34.0664C18.751 36.1535 20.449 37.8516 22.5361 37.8516ZM22.5361 32.2734C23.5248 32.2734 24.3291 33.0778 24.3291 34.0664C24.3291 35.055 23.5248 35.8594 22.5361 35.8594C21.5475 35.8594 20.7432 35.055 20.7432 34.0664C20.7432 33.0778 21.5475 32.2734 22.5361 32.2734Z" fill="#1C3C6B"/>
<path d="M31.833 37.8516C33.9201 37.8516 35.6182 36.1535 35.6182 34.0664C35.6182 31.9793 33.9201 30.2812 31.833 30.2812C29.7459 30.2812 28.0479 31.9793 28.0479 34.0664C28.0479 36.1535 29.7459 37.8516 31.833 37.8516ZM31.833 32.2734C32.8216 32.2734 33.626 33.0778 33.626 34.0664C33.626 35.055 32.8216 35.8594 31.833 35.8594C30.8444 35.8594 30.04 35.055 30.04 34.0664C30.04 33.0778 30.8444 32.2734 31.833 32.2734Z" fill="#1C3C6B"/>
<path d="M41.1299 37.8516C43.217 37.8516 44.915 36.1535 44.915 34.0664C44.915 31.9793 43.217 30.2812 41.1299 30.2812C39.0428 30.2812 37.3447 31.9793 37.3447 34.0664C37.3447 36.1535 39.0428 37.8516 41.1299 37.8516ZM41.1299 32.2734C42.1185 32.2734 42.9229 33.0778 42.9229 34.0664C42.9229 35.055 42.1185 35.8594 41.1299 35.8594C40.1413 35.8594 39.3369 35.055 39.3369 34.0664C39.3369 33.0778 40.1413 32.2734 41.1299 32.2734Z" fill="#1C3C6B"/>
<path d="M17.0244 23.707C17.0244 21.6199 15.3264 19.9219 13.2393 19.9219C11.1521 19.9219 9.4541 21.6199 9.4541 23.707C9.4541 25.7941 11.1521 27.4922 13.2393 27.4922C15.3264 27.4922 17.0244 25.7941 17.0244 23.707ZM11.4463 23.707C11.4463 22.7184 12.2506 21.9141 13.2393 21.9141C14.2279 21.9141 15.0322 22.7184 15.0322 23.707C15.0322 24.6957 14.2279 25.5 13.2393 25.5C12.2506 25.5 11.4463 24.6957 11.4463 23.707Z" fill="#1C3C6B"/>
<path d="M31.833 27.4922C33.9201 27.4922 35.6182 25.7941 35.6182 23.707C35.6182 21.6199 33.9201 19.9219 31.833 19.9219C29.7459 19.9219 28.0479 21.6199 28.0479 23.707C28.0479 25.7941 29.7459 27.4922 31.833 27.4922ZM31.833 21.9141C32.8216 21.9141 33.626 22.7184 33.626 23.707C33.626 24.6957 32.8216 25.5 31.833 25.5C30.8444 25.5 30.04 24.6957 30.04 23.707C30.04 22.7184 30.8444 21.9141 31.833 21.9141Z" fill="#1C3C6B"/>
<path d="M41.1299 27.4922C43.217 27.4922 44.915 25.7941 44.915 23.707C44.915 21.6199 43.217 19.9219 41.1299 19.9219C39.0428 19.9219 37.3447 21.6199 37.3447 23.707C37.3447 25.7941 39.0428 27.4922 41.1299 27.4922ZM41.1299 21.9141C42.1185 21.9141 42.9229 22.7184 42.9229 23.707C42.9229 24.6957 42.1185 25.5 41.1299 25.5C40.1413 25.5 39.3369 24.6957 39.3369 23.707C39.3369 22.7184 40.1413 21.9141 41.1299 21.9141Z" fill="#1C3C6B"/>
<path d="M22.5361 27.4922C24.6232 27.4922 26.3213 25.7941 26.3213 23.707C26.3213 21.6199 24.6232 19.9219 22.5361 19.9219C20.449 19.9219 18.751 21.6199 18.751 23.707C18.751 25.7941 20.449 27.4922 22.5361 27.4922ZM22.5361 21.9141C23.5248 21.9141 24.3291 22.7184 24.3291 23.707C24.3291 24.6957 23.5248 25.5 22.5361 25.5C21.5475 25.5 20.7432 24.6957 20.7432 23.707C20.7432 22.7184 21.5475 21.9141 22.5361 21.9141Z" fill="#1C3C6B"/>
<path d="M7.20433 40.3825C7.3912 40.5693 7.6445 40.6743 7.90867 40.6743C8.17283 40.6743 8.42614 40.5693 8.61301 40.3825L12.5613 36.4342C12.9503 36.0453 12.9503 35.4145 12.5613 35.0256C12.1722 34.6366 11.5417 34.6366 11.1525 35.0256L7.90867 38.2695L6.80012 37.161C6.41104 36.772 5.78051 36.772 5.39134 37.161C5.00237 37.55 5.00237 38.1807 5.39134 38.5698L7.20433 40.3825Z" fill="#1C3C6B"/>
</svg>
