<svg width="62" height="62" viewBox="0 0 62 62" fill="none" xmlns="http://www.w3.org/2000/svg">
<path fill-rule="evenodd" clip-rule="evenodd" d="M48.6788 25.4295C47.3235 25.4295 46.0203 25.2067 44.8037 24.7957V49.6352C44.8037 50.9012 45.8395 51.937 47.1057 51.937C48.3717 51.937 49.4077 50.9012 49.4077 49.6351V25.408C49.1665 25.4223 48.9235 25.4295 48.6788 25.4295Z" fill="#E5F5FD"/>
<path fill-rule="evenodd" clip-rule="evenodd" d="M44.804 49.6352V24.7959C43.9407 24.5044 43.1212 24.1182 42.3574 23.6498C41.0609 23.9977 39.7645 24.3455 38.4678 24.6931C37.8324 24.8724 37.2218 24.3534 37.2729 23.7166C33.709 25.168 29.298 26.1498 24.7415 26.1498H11.0151V37.8926H25.5656C26.1038 37.8926 26.5441 38.3329 26.5441 38.8711V41.8576C35.0726 42.3332 42.7484 46.0816 44.804 49.6352Z" fill="#E5F5FD"/>
<path fill-rule="evenodd" clip-rule="evenodd" d="M11.0152 37.8925V26.1497H7.09331C3.8578 26.1497 1.21057 28.7917 1.21045 32.021V33.9781V35.9352C1.21057 39.1646 3.85768 41.8067 7.09331 41.8066H9.0543V38.8709C9.0543 38.3327 9.4946 37.8924 10.0329 37.8924H11.0152V37.8925Z" fill="#43CAF9"/>
<path fill-rule="evenodd" clip-rule="evenodd" d="M25.5657 37.8925H11.0151H10.0328C9.4945 37.8925 9.0542 38.3328 9.0542 38.871V41.8067V42.7854C9.0542 43.3236 9.4945 43.7639 10.0328 43.7639H25.5657C26.104 43.7639 26.5443 43.3236 26.5443 42.7854V41.8577V38.8711C26.5443 38.3329 26.1038 37.8925 25.5657 37.8925Z" fill="#E5F5FD"/>
<path fill-rule="evenodd" clip-rule="evenodd" d="M20.3227 43.7639H11.5249L11.5538 43.9713L13.7263 57.3901C14.2525 59.3504 15.3974 61.0039 17.55 60.7661C19.9747 60.4984 24.7652 60.5044 23.6888 56.4948C22.2291 51.0585 21.4728 50.4866 20.3172 43.9713L20.3227 43.7639Z" fill="#FCCD03"/>
<path fill-rule="evenodd" clip-rule="evenodd" d="M41.6075 29.5128C43.0675 30.0058 44.6313 30.2732 46.2577 30.2732C46.5514 30.2732 46.8429 30.2634 47.1323 30.2463V30.2474C54.7505 29.7952 60.7889 23.4738 60.7889 15.7421C60.7889 7.71679 54.2831 1.21094 46.2577 1.21094C38.2324 1.21094 31.7266 7.71679 31.7266 15.7421C31.7266 18.522 32.5076 21.1194 33.8617 23.3274C33.4429 24.8878 33.0243 26.4482 32.6058 28.0101C32.5872 28.08 32.5754 28.1494 32.57 28.2177C32.5088 28.9819 33.2417 29.6047 34.0041 29.3895C35.56 28.9726 37.1158 28.5552 38.6716 28.1378C39.588 28.6997 40.5717 29.1631 41.6075 29.5128Z" fill="#E5F5FD"/>
<path d="M45.0464 10.8983C45.0464 8.89512 43.4167 7.26544 41.4136 7.26544C39.4104 7.26544 37.7808 8.89512 37.7808 10.8983C37.7808 12.9014 39.4104 14.5311 41.4136 14.5311C43.4167 14.5311 45.0464 12.9014 45.0464 10.8983ZM40.2026 10.8983C40.2026 10.2305 40.7459 9.68732 41.4136 9.68732C42.0813 9.68732 42.6245 10.2305 42.6245 10.8983C42.6245 11.566 42.0813 12.1092 41.4136 12.1092C40.7459 12.1092 40.2026 11.566 40.2026 10.8983Z" fill="#1C3C6B"/>
<path d="M51.1011 16.9529C49.0979 16.9529 47.4683 18.5826 47.4683 20.5857C47.4683 22.5888 49.0979 24.2185 51.1011 24.2185C53.1042 24.2185 54.7339 22.5888 54.7339 20.5857C54.7339 18.5826 53.1042 16.9529 51.1011 16.9529ZM51.1011 21.7966C50.4334 21.7966 49.8901 21.2534 49.8901 20.5857C49.8901 19.918 50.4334 19.3748 51.1011 19.3748C51.7688 19.3748 52.312 19.918 52.312 20.5857C52.312 21.2534 51.7688 21.7966 51.1011 21.7966Z" fill="#1C3C6B"/>
<path d="M51.0578 7.42772C50.4785 7.09338 49.738 7.29185 49.4037 7.87092L41.014 22.4022C40.6796 22.9814 40.8781 23.7219 41.4572 24.0563C41.648 24.1664 41.8561 24.2188 42.0615 24.2188C42.48 24.2188 42.8871 24.0016 43.1114 23.6131L51.501 9.08186C51.8353 8.50267 51.637 7.76218 51.0578 7.42772Z" fill="#1C3C6B"/>
<path d="M61.9998 15.7421C61.9998 7.06179 54.938 0 46.2578 0C37.5775 0 30.5157 7.06179 30.5157 15.7421C30.5157 18.473 31.2212 21.1453 32.5604 23.5047C32.5158 23.6708 32.4712 23.8373 32.4266 24.0034C30.7619 24.4084 29.0627 24.6859 27.366 24.8281C26.6996 24.8839 26.2044 25.4694 26.2603 26.1359C26.3133 26.768 26.8426 27.2458 27.4656 27.2458C27.4995 27.2458 27.5337 27.2444 27.5681 27.2415C28.9563 27.1252 30.3456 26.9231 31.719 26.6421C31.6246 26.9943 31.5302 27.3457 31.4358 27.6982C31.2166 28.5209 31.4478 29.3687 32.054 29.9662C32.6511 30.5545 33.5197 30.7805 34.3226 30.5577C35.7134 30.1852 37.1039 29.8122 38.4943 29.4391C40.0786 30.3385 41.8041 30.9506 43.5934 31.2567V46.4794C40.0979 43.5808 33.9699 41.2945 27.7555 40.7327V38.8711C27.7555 37.6638 26.7733 36.6816 25.5659 36.6816H12.2265V27.3608H16.57C17.2388 27.3608 17.781 26.8185 17.781 26.1498C17.781 25.4811 17.2388 24.9389 16.57 24.9389H7.09376C3.18233 24.9389 0.000121093 28.1159 0 32.0211V35.9354C0 39.8406 3.18233 43.0176 7.09376 43.0176H7.85652C7.97289 44.116 8.90458 44.9748 10.0334 44.9748H10.4904L12.5317 57.5835C12.5382 57.6242 12.5468 57.6644 12.5575 57.704C13.2982 60.463 14.9525 62.0003 17.1415 62C17.3186 62 17.4997 61.99 17.6837 61.9697C17.9117 61.9445 18.1614 61.9218 18.4254 61.8978C20.4234 61.7163 23.16 61.4677 24.4294 59.6474C25.0812 58.7129 25.2258 57.5465 24.8591 56.1807C24.3167 54.1608 23.8654 52.7879 23.4671 51.5766C22.8488 49.6956 22.3464 48.1664 21.7343 44.9748H25.5663C26.6447 44.9748 27.5414 44.1903 27.721 43.1626C31.1726 43.4912 34.6516 44.3805 37.6339 45.7093C40.4411 46.96 42.6469 48.5525 43.6145 50.0142C43.8041 51.7736 45.2977 53.1481 47.1066 53.1481C49.0436 53.1481 50.6195 51.5722 50.6195 49.6352V30.8689C57.1845 28.9731 61.9998 22.9096 61.9998 15.7421ZM2.42186 35.9354V32.0211C2.42186 29.4513 4.51774 27.3608 7.09376 27.3608H9.80479V36.6938C8.70454 36.8084 7.84393 37.7411 7.84393 38.8711V40.5959H7.09388C4.51774 40.5957 2.42186 38.5051 2.42186 35.9354ZM21.1662 52.3329C21.5547 53.5146 21.9949 54.8536 22.5198 56.8087C22.7802 57.7784 22.5262 58.1425 22.4428 58.2621C21.8182 59.1577 19.6446 59.3552 18.2062 59.4859C17.9257 59.5115 17.6602 59.5356 17.4177 59.5624C16.9757 59.6117 15.6368 59.7591 14.9121 57.1336L12.9438 44.9748H19.2695C19.9519 48.6385 20.5178 50.3602 21.1662 52.3329ZM25.3338 42.553H10.2657V39.1034H25.3338V42.553ZM48.1975 49.6352C48.1975 50.2368 47.708 50.7263 47.1064 50.7263C46.5048 50.7263 46.0154 50.2368 46.0154 49.6352V31.4802C46.0962 31.4814 46.1769 31.4841 46.2578 31.4841C46.9145 31.4841 47.5616 31.443 48.1975 31.3646V49.6352ZM46.2578 29.0622C43.7965 29.0622 41.3921 28.3856 39.3048 27.1054C39.1125 26.9874 38.8932 26.9266 38.6716 26.9266C38.5666 26.9266 38.4611 26.9402 38.3577 26.968C36.8426 27.3746 35.3273 27.7812 33.812 28.1871C34.2183 26.6709 34.6246 25.1561 35.0312 23.6411C35.1174 23.3201 35.0677 22.9777 34.8938 22.6942C33.614 20.6074 32.9375 18.2033 32.9375 15.7421C32.9375 8.39732 38.9129 2.42186 46.2577 2.42186C53.6024 2.42186 59.5778 8.39732 59.5778 15.7421C59.5779 23.0868 53.6025 29.0622 46.2578 29.0622Z" fill="#1C3C6B"/>
<path d="M22.0194 27.3606C22.6882 27.3606 23.2303 26.8183 23.2303 26.1497C23.2303 25.481 22.6882 24.9387 22.0194 24.9387H22.0186C21.3498 24.9387 20.8081 25.481 20.8081 26.1497C20.8081 26.8183 21.3506 27.3606 22.0194 27.3606Z" fill="#1C3C6B"/>
</svg>
