<svg width="73" height="57" viewBox="0 0 73 57" fill="none" xmlns="http://www.w3.org/2000/svg">
<path d="M60.4059 37.6224L37.2031 14.4196C34.3051 11.5217 30.3747 9.89362 26.2763 9.89362H20.4508L9.68457 28.7166L34.6369 53.6689L39.8324 48.4735L40.8284 49.4695C42.2747 50.9157 44.6196 50.9157 46.0658 49.4695C47.5121 48.0232 47.5121 45.6783 46.0658 44.2321L48.5268 46.693C49.973 48.1393 52.3179 48.1393 53.7642 46.693C55.2104 45.2468 55.2104 42.9019 53.7642 41.4556L55.1685 42.86C56.6149 44.3062 58.9596 44.3062 60.4059 42.86C61.8523 41.4136 61.8523 39.0688 60.4059 37.6224Z" fill="#E5F5FD"/>
<path d="M52.4639 6.70074H46.5451H36.9467C35.3376 6.70074 33.7946 7.3399 32.6568 8.47763L27.1018 14.0327C25.6555 15.4789 25.6555 17.8238 27.1018 19.2701C28.548 20.7163 30.8929 20.7163 32.3392 19.2701L37.2042 14.4051L56.0701 33.2868L63.3724 25.9845L52.4639 6.70074Z" fill="#C8EFFE"/>
<path d="M7.44644 28.5583L2.41819 25.6552C1.47009 25.1079 1.14531 23.8956 1.69264 22.9475L11.808 5.42717C12.3554 4.47906 13.5677 4.15428 14.5158 4.70161L19.544 7.60468C20.4921 8.15201 20.8169 9.36431 20.2696 10.3124L10.1542 27.8327C9.6067 28.7808 8.39441 29.1056 7.44644 28.5583Z" fill="#43CAF9"/>
<path d="M65.553 25.5474L70.5813 22.6443C71.5294 22.097 71.8542 20.8847 71.3068 19.9366L61.1913 2.41612C60.644 1.46801 59.4317 1.14323 58.4836 1.69057L53.4553 4.59363C52.5072 5.14097 52.1824 6.35326 52.7298 7.30137L62.8451 24.8217C63.3926 25.7698 64.6049 26.0947 65.553 25.5474Z" fill="#FCCD03"/>
<path d="M38.1436 52.023L36.1156 54.0511C34.6693 55.4974 32.3244 55.4974 30.8781 54.0511C29.4319 52.6049 29.4319 50.26 30.8781 48.8137L32.9062 46.7856C34.3525 45.3394 36.6974 45.3394 38.1436 46.7856C39.5899 48.2319 39.5899 50.5768 38.1436 52.023Z" fill="#C8EFFE"/>
<path d="M32.9063 46.7857L30.8782 48.8138C29.432 50.2601 27.0871 50.2601 25.6408 48.8138C24.1946 47.3676 24.1946 45.0227 25.6408 43.5764L27.6689 41.5483C29.1152 40.1021 31.4601 40.1021 32.9063 41.5483C34.3526 42.9946 34.3526 45.3395 32.9063 46.7857Z" fill="#C8EFFE"/>
<path d="M27.669 41.5483L25.6409 43.5764C24.1947 45.0226 21.8498 45.0226 20.4035 43.5764C18.9573 42.1301 18.9573 39.7852 20.4035 38.339L22.4316 36.3109C23.8779 34.8646 26.2228 34.8646 27.669 36.3109C29.1153 37.757 29.1153 40.1019 27.669 41.5483Z" fill="#C8EFFE"/>
<path d="M22.0559 36.6864L20.8255 37.9168C19.3793 39.363 17.0344 39.363 15.5881 37.9168C14.1419 36.4705 14.1419 34.1256 15.5881 32.6794L16.8185 31.4489C18.2648 30.0027 20.6097 30.0027 22.0559 31.4489C23.5023 32.8952 23.5023 35.2401 22.0559 36.6864Z" fill="#C8EFFE"/>
<path d="M72.5414 19.2237L70.6399 15.9302C70.2462 15.2484 69.3748 15.0147 68.6923 15.4084C68.0104 15.802 67.7767 16.674 68.1705 17.3559L70.072 20.6495C70.1724 20.8231 70.15 20.9885 70.1278 21.0716C70.1055 21.1548 70.0421 21.3093 69.8684 21.4095L64.8402 24.3126C64.5741 24.4657 64.2334 24.3743 64.08 24.1089L53.9645 6.58868C53.811 6.32293 53.9024 5.9819 54.1682 5.82834L59.1963 2.92543C59.462 2.7723 59.8034 2.86326 59.9566 3.12902L61.7548 6.24352C62.1485 6.92558 63.0205 7.15926 63.7023 6.76533C64.3842 6.37169 64.6179 5.49972 64.2241 4.81779L62.426 1.70329C61.4866 0.076113 59.3985 -0.483769 57.7707 0.455926L52.7425 3.35899C51.9786 3.80011 51.45 4.49429 51.2013 5.27502H36.9468C34.9456 5.27502 33.064 6.05432 31.6487 7.4695L30.1882 8.93001C28.9076 8.62476 27.5957 8.46779 26.2763 8.46779H21.8503C21.6291 7.61364 21.0798 6.84489 20.2572 6.36983L15.2289 3.46677C14.4405 3.01154 13.5217 2.89078 12.6428 3.12631C11.7635 3.36184 11.0286 3.92586 10.5735 4.71414L0.458112 22.2345C0.00302066 23.0227 -0.118023 23.9412 0.117506 24.8206C0.353036 25.7 0.917053 26.4348 1.70548 26.8899L6.73373 29.7929C7.26909 30.102 7.85406 30.2489 8.43191 30.2489C8.64249 30.2489 8.85193 30.2285 9.0578 30.1903L13.1733 34.3059C13.1103 34.6294 13.0776 34.9612 13.0776 35.2982C13.0776 36.6682 13.6111 37.9564 14.5799 38.925C15.5075 39.8524 16.7048 40.349 17.9217 40.4162C17.903 40.5949 17.8929 40.7754 17.8929 40.9576C17.8929 42.3278 18.4264 43.6158 19.3952 44.5844C20.3639 45.5532 21.652 46.0867 23.0219 46.0867C23.0591 46.0867 23.0959 46.0848 23.133 46.084C23.1321 46.1211 23.1303 46.1578 23.1303 46.1951C23.1303 47.5652 23.6638 48.8532 24.6326 49.8218C25.6014 50.7906 26.8894 51.3241 28.2593 51.3241C28.2965 51.3241 28.3333 51.3223 28.3704 51.3214C28.3695 51.3585 28.3677 51.3952 28.3677 51.4325C28.3677 52.8024 28.9012 54.0906 29.87 55.0592C30.8388 56.0279 32.1268 56.5615 33.4967 56.5615C34.8667 56.5615 36.1549 56.028 37.1235 55.0592L39.1517 53.0311C39.7464 52.4365 40.1627 51.7304 40.4038 50.9799C41.3049 51.6449 42.3756 51.9775 43.4467 51.9774C44.76 51.9772 46.0738 51.4774 47.0735 50.4775C47.6717 49.8793 48.1033 49.1591 48.3465 48.3734C49.1719 48.9131 50.136 49.2033 51.1451 49.2033C52.5151 49.2033 53.8032 48.6698 54.7718 47.701C55.4917 46.9811 55.9707 46.0848 56.1696 45.1096C56.6846 45.2802 57.2286 45.3701 57.7868 45.3701C59.1568 45.3701 60.4451 44.8366 61.4137 43.8677C63.4134 41.8678 63.4134 38.6139 61.4137 36.614L58.0861 33.2864L64.1601 27.2124C64.295 27.2285 64.4308 27.2376 64.5673 27.2376C65.1451 27.2376 65.7302 27.0908 66.2655 26.7818L71.2937 23.8789C72.082 23.4237 72.646 22.6888 72.8817 21.8094C73.1174 20.9301 72.9965 20.012 72.5414 19.2237ZM3.13106 24.4205C2.95741 24.3203 2.89411 24.1659 2.87187 24.0826C2.84962 23.9995 2.82724 23.8341 2.92761 23.6603L13.043 6.13987C13.1432 5.96621 13.2978 5.90291 13.3809 5.88067C13.4164 5.87126 13.4669 5.86171 13.5265 5.86171C13.6067 5.86171 13.7035 5.87896 13.803 5.93627L18.8313 8.83934C19.0969 8.99274 19.1884 9.33378 19.035 9.59953L8.91965 27.1198C8.7661 27.3855 8.42535 27.477 8.15945 27.3236L3.13106 24.4205ZM15.9291 35.2981C15.9291 34.6896 16.166 34.1177 16.5963 33.6875L17.8267 32.457C18.2707 32.0129 18.854 31.7909 19.4374 31.7909C20.0205 31.7909 20.6039 32.0131 21.0479 32.457C21.4782 32.8873 21.7151 33.4592 21.7151 34.0676C21.7151 34.6759 21.4782 35.2479 21.0479 35.678L19.8175 36.9084C18.9294 37.7967 17.4844 37.7965 16.5963 36.9084C16.166 36.4784 15.9291 35.9064 15.9291 35.2981ZM23.0221 43.2352C22.4136 43.2352 21.8417 42.9983 21.4116 42.5681C20.9813 42.138 20.7443 41.566 20.7443 40.9576C20.7443 40.3493 20.9813 39.7773 21.4116 39.3472L23.4397 37.3191C23.8836 36.8751 24.4669 36.6531 25.0502 36.6531C25.6336 36.6531 26.2168 36.8751 26.6608 37.3191C27.0911 37.7492 27.328 38.3212 27.328 38.9296C27.328 39.5379 27.0911 40.1099 26.6608 40.5401L24.6327 42.5681C24.2024 42.9984 23.6304 43.2352 23.0221 43.2352ZM28.2595 48.4728C27.651 48.4728 27.0791 48.2358 26.649 47.8057C26.2187 47.3756 25.9817 46.8036 25.9817 46.1952C25.9817 45.5868 26.2187 45.0148 26.649 44.5846L28.6771 42.5565C29.121 42.1125 29.7043 41.8905 30.2876 41.8905C30.8708 41.8905 31.4542 42.1125 31.8982 42.5566C32.3285 42.9867 32.5654 43.5587 32.5654 44.1671C32.5654 44.7755 32.3285 45.3475 31.8982 45.7776L29.8701 47.8057C29.44 48.2358 28.868 48.4728 28.2595 48.4728ZM37.1356 51.015L35.1074 53.0432C34.6772 53.4734 34.1054 53.7103 33.4969 53.7103C32.8884 53.7103 32.3165 53.4734 31.8864 53.0432C31.4561 52.613 31.2191 52.0411 31.2191 51.4327C31.2191 50.8242 31.4561 50.2524 31.8864 49.8221L33.9145 47.794C34.3584 47.3499 34.9417 47.1279 35.5251 47.1279C36.1082 47.1279 36.6916 47.35 37.1356 47.7939C38.0237 48.6818 38.0237 50.1269 37.1356 51.015ZM59.3978 41.8517C58.9675 42.282 58.3956 42.519 57.7871 42.519C57.1787 42.519 56.6069 42.282 56.1766 41.8517L42.5681 28.2432C42.0113 27.6866 41.1088 27.6864 40.5517 28.2432C39.9949 28.7999 39.9949 29.7027 40.5517 30.2594L52.7559 42.4638C53.1861 42.8939 53.4231 43.4659 53.4231 44.0743C53.4231 44.6826 53.1861 45.2546 52.7559 45.6849C52.3257 46.1151 51.7539 46.352 51.1454 46.352C50.5369 46.352 49.965 46.1151 49.5349 45.6849L34.8697 31.0198C34.313 30.4632 33.4102 30.4632 32.8533 31.0198C32.2966 31.5765 32.2966 32.4793 32.8533 33.036L45.0575 45.2404C45.4878 45.6705 45.7248 46.2425 45.7248 46.8509C45.7248 47.4592 45.4878 48.0312 45.0575 48.4614C44.1696 49.3495 42.7246 49.3498 41.8364 48.4614L39.1523 45.7773C39.1486 45.7736 39.1445 45.7705 39.1408 45.7669C38.1139 44.7462 36.7595 44.2516 35.4142 44.2806C35.415 44.2428 35.4169 44.2052 35.4169 44.1671C35.4169 42.7971 34.8834 41.509 33.9146 40.5402C32.8865 39.5121 31.527 39.0141 30.1766 39.043C30.1775 39.0053 30.1794 38.9676 30.1794 38.9297C30.1794 37.5596 29.6458 36.2716 28.6771 35.3028C27.5527 34.1785 26.0319 33.6865 24.5606 33.8263C24.5017 32.547 23.9757 31.3525 23.0641 30.4409C21.0643 28.4411 17.8102 28.4415 15.8103 30.4409L14.5799 31.6713C14.5785 31.6728 14.5771 31.6743 14.5756 31.6758L11.4097 28.5098L21.3346 11.3192H26.2761C26.7603 11.3192 27.2432 11.3449 27.7234 11.3948L26.0937 13.0246C25.1249 13.9933 24.5914 15.2815 24.5914 16.6515C24.5914 18.0216 25.1249 19.3096 26.0937 20.2784C27.0937 21.2782 28.4072 21.7782 29.7204 21.7782C31.0339 21.7782 32.3475 21.2784 33.3473 20.2784L37.1962 16.4295L59.3976 38.6307C60.2857 39.5187 60.2857 40.9638 59.3978 41.8517ZM45.6997 20.9C47.7744 19.3984 49.0461 16.9752 49.0461 14.3426C49.0461 13.5552 48.4077 12.9169 47.6204 12.9169C46.8331 12.9169 46.1947 13.5552 46.1947 14.3426C46.1947 16.2051 45.2109 17.9038 43.6413 18.8418L38.211 13.4115C37.6541 12.8547 36.7529 12.8402 36.1961 13.397L31.3311 18.262C30.443 19.15 28.998 19.1499 28.1099 18.262C27.6796 17.8318 27.4427 17.2598 27.4427 16.6515C27.4427 16.0431 27.6796 15.4711 28.1099 15.0408L33.665 9.48576C34.5415 8.60922 35.707 8.12647 36.9468 8.12647H51.5598L61.6105 25.5349C61.6343 25.5761 61.6602 25.6153 61.6855 25.6551L56.0701 31.2704L45.6997 20.9Z" fill="#1C3C6B"/>
<path d="M66.1977 12.5132C66.5727 12.5132 66.9391 12.3607 67.2058 12.0955C67.4708 11.8289 67.6235 11.4624 67.6235 11.0875C67.6235 10.711 67.471 10.3446 67.2058 10.078C66.9391 9.81281 66.5727 9.66168 66.1977 9.66168C65.8213 9.66168 65.4549 9.81281 65.1897 10.078C64.9231 10.3446 64.772 10.711 64.772 11.0875C64.772 11.4624 64.9231 11.8289 65.1897 12.0955C65.4549 12.3608 65.8213 12.5132 66.1977 12.5132Z" fill="#1C3C6B"/>
</svg>
